<?xml version="1.0" encoding="UTF-8"?>
<!-- Generator: visioncortex VTracer 0.6.12 -->
<svg xmlns="http://www.w3.org/2000/svg" width="1823" height="773" viewBox="0 0 3646 1546" fill="none" role="img" aria-label="OnePort 365">
<path d="M0 0 C0.647 0.351 1.295 0.703 1.962 1.064 C10.676 5.805 19.187 10.877 27.678 16.004 C35.715 20.85 43.809 25.595 51.91 30.33 C58.791 34.351 65.664 38.385 72.508 42.469 C72.812 42.65 72.812 42.65 74.349 43.566 C77.233 45.285 80.116 47.007 82.994 48.735 C88.44 51.983 93.906 55.007 99.602 57.788 C103.791 59.905 107.79 62.335 111.812 64.75 C113.755 65.907 115.698 67.063 117.641 68.219 C118.155 68.525 118.155 68.525 120.756 70.074 C126.511 73.49 132.287 76.869 138.062 80.25 C140.531 81.695 143 83.14 145.469 84.586 C146.087 84.948 146.705 85.31 147.342 85.683 C151.764 88.273 156.18 90.873 160.594 93.477 C171.849 100.11 183.118 106.683 194.61 112.902 C202.427 117.165 210.029 121.771 217.647 126.379 C225.118 130.892 232.653 135.272 240.247 139.575 C246.645 143.208 252.987 146.93 259.312 150.688 C265.423 154.315 271.544 157.913 277.75 161.375 C297.135 172.19 316.261 183.468 335.4 194.711 C339.907 197.36 344.418 200.003 348.93 202.645 C350.242 203.413 351.554 204.181 352.866 204.95 C354.748 206.052 356.629 207.153 358.511 208.255 C364.134 211.545 369.749 214.841 375.312 218.23 C380.19 221.168 385.222 223.658 390.361 226.098 C396.751 229.202 401.309 232.137 404 239 C404.904 244.058 405.143 249.002 405.129 254.127 C405.13 254.523 405.13 254.523 405.134 256.531 C405.139 259.189 405.136 261.846 405.134 264.504 C405.136 266.429 405.138 268.354 405.141 270.279 C405.147 275.569 405.147 280.858 405.145 286.147 C405.145 291.852 405.151 297.557 405.155 303.262 C405.164 314.439 405.166 325.615 405.167 336.792 C405.168 345.876 405.17 354.96 405.173 364.044 C405.18 385.604 405.186 407.164 405.186 428.725 C405.186 429.414 405.186 430.103 405.186 430.814 C405.186 434.308 405.186 437.802 405.185 441.296 C405.185 441.643 405.185 441.643 405.185 443.398 C405.185 444.802 405.185 446.205 405.185 447.608 C405.185 469.441 405.192 491.274 405.206 513.106 C405.221 537.639 405.23 562.172 405.229 586.705 C405.229 599.694 405.231 612.682 405.242 625.67 C405.251 636.728 405.253 647.785 405.247 658.843 C405.243 664.485 405.243 670.126 405.252 675.768 C405.26 680.934 405.258 686.1 405.25 691.266 C405.248 693.133 405.25 695.001 405.255 696.868 C405.325 721.784 405.325 721.784 398.172 729.129 C391.568 734.818 383.898 738.639 376.113 742.438 C371.065 744.971 366.202 747.818 361.32 750.654 C357.487 752.878 353.648 755.091 349.809 757.305 C347.543 758.612 345.277 759.92 343.011 761.228 C335.349 765.651 327.674 770.052 319.988 774.432 C315.13 777.202 310.283 779.991 305.445 782.797 C286.008 794.067 286.008 794.067 278.375 798.062 C271.034 801.911 263.907 806.097 256.76 810.292 C248.662 815.041 240.529 819.724 232.375 824.375 C231.251 825.016 230.126 825.658 228.968 826.318 C226.768 827.573 224.567 828.827 222.366 830.081 C218.776 832.128 215.186 834.176 211.598 836.227 C210.499 836.854 209.401 837.481 208.27 838.127 C204.863 840.078 201.463 842.038 198.062 844 C193.386 846.689 188.655 849.25 183.875 851.75 C176.856 855.431 170.078 859.481 163.316 863.612 C158.261 866.691 153.14 869.589 147.933 872.401 C142.474 875.377 137.084 878.475 131.688 881.562 C131.083 881.908 130.478 882.253 129.855 882.609 C120.718 887.826 111.629 893.118 102.632 898.574 C97.348 901.742 91.953 904.536 86.422 907.248 C79.865 910.502 73.631 914.266 67.375 918.062 C44.218 932.098 44.218 932.098 39.787 931.903 C37.349 930.671 36.996 929.526 36 927 C35.746 924.401 35.746 924.401 35.739 921.396 C35.732 920.255 35.725 919.114 35.718 917.938 C35.72 916.69 35.723 915.442 35.725 914.157 C35.72 912.839 35.715 911.522 35.71 910.165 C35.696 906.553 35.696 902.941 35.698 899.33 C35.699 896.313 35.695 893.296 35.69 890.279 C35.679 883.16 35.678 876.041 35.684 868.922 C35.69 861.583 35.678 854.244 35.657 846.905 C35.639 840.6 35.633 834.295 35.636 827.99 C35.638 824.226 35.636 820.463 35.622 816.699 C35.609 813.158 35.611 809.617 35.624 806.076 C35.628 804.162 35.616 802.247 35.605 800.333 C35.647 793.465 35.935 788.512 40.625 783.138 C46.298 778.276 52.427 774.501 58.875 770.75 C61.103 769.436 63.331 768.121 65.559 766.805 C66.65 766.162 67.742 765.52 68.867 764.858 C73.259 762.253 77.597 759.565 81.938 756.875 C87.13 753.67 92.325 750.723 97.844 748.105 C100.911 746.533 103.694 744.615 106.504 742.625 C109.443 740.711 112.485 739.05 115.558 737.361 C119.613 735.101 123.586 732.707 127.562 730.312 C127.997 730.051 127.997 730.051 130.196 728.729 C138.896 723.484 147.504 718.098 156.095 712.678 C164.353 707.472 172.585 702.347 181.246 697.828 C188.814 693.814 196.047 689.312 203.3 684.758 C208.105 681.749 212.95 678.89 217.923 676.168 C221.04 674.415 224.017 672.469 227 670.5 C231.431 667.614 235.89 664.876 240.543 662.363 C243.822 660.544 247.036 658.619 250.25 656.688 C250.574 656.493 250.574 656.493 252.213 655.508 C256.309 653.038 260.377 650.527 264.438 648 C268.901 645.245 273.417 642.612 278 640.062 C285.372 635.95 292.693 631.75 299.99 627.506 C301.272 626.761 302.556 626.019 303.841 625.28 C310.689 621.335 317.249 617.332 323.33 612.237 C325 611 325 611 327 611 C327.289 610.278 327.578 609.556 327.875 608.812 C328.556 607.111 329.273 605.422 330.056 603.765 C331.219 600.359 331.243 597.543 331.233 593.942 C331.234 593.24 331.235 592.538 331.236 591.814 C331.236 589.454 331.222 587.094 331.208 584.734 C331.206 583.026 331.204 581.318 331.203 579.61 C331.198 574.91 331.18 570.211 331.16 565.511 C331.14 560.449 331.132 555.388 331.123 550.327 C331.104 541.533 331.078 532.739 331.047 523.945 C331.014 514.597 330.987 505.25 330.964 495.903 C330.962 494.729 330.959 493.554 330.956 492.344 C330.95 489.956 330.945 487.568 330.939 485.18 C330.884 461.828 330.806 438.477 330.712 415.125 C330.656 401.121 330.607 387.117 330.567 373.112 C330.537 363.054 330.5 352.997 330.457 342.939 C330.432 337.001 330.41 331.063 330.397 325.125 C330.384 319.624 330.362 314.123 330.333 308.622 C330.324 306.609 330.318 304.597 330.316 302.584 C330.312 299.847 330.297 297.11 330.278 294.373 C330.28 293.575 330.282 292.777 330.284 291.955 C330.246 288.163 330.139 285.214 328 282 C323.642 282.596 320.529 284.193 316.738 286.387 C316.148 286.726 315.557 287.066 314.948 287.415 C313.066 288.5 311.189 289.593 309.312 290.688 C308.071 291.404 306.83 292.119 305.588 292.834 C299.374 296.419 293.201 300.068 287.058 303.773 C284.615 305.229 282.135 306.601 279.625 307.938 C275.704 310.053 271.841 312.242 268 314.5 C263.36 317.227 258.668 319.829 253.933 322.387 C251.047 323.974 248.201 325.613 245.359 327.277 C244.309 327.892 243.258 328.507 242.176 329.14 C241.128 329.754 240.08 330.368 239 331 C237.141 332.085 235.281 333.17 233.422 334.254 C232.5 334.792 231.579 335.329 230.629 335.883 C228.641 337.043 226.652 338.202 224.664 339.361 C219.257 342.512 213.855 345.671 208.461 348.844 C207.399 349.467 206.337 350.09 205.243 350.732 C203.225 351.917 201.209 353.103 199.194 354.293 C193.973 357.354 188.707 360.202 183.273 362.867 C180.109 364.444 177.063 366.171 174 367.938 C173.402 368.282 172.803 368.626 172.187 368.981 C168.81 370.93 165.459 372.917 162.125 374.938 C158.089 377.379 153.993 379.701 149.875 382 C142.999 385.844 136.179 389.779 129.375 393.75 C128.36 394.342 127.345 394.934 126.3 395.545 C121.163 398.549 116.035 401.569 110.922 404.613 C109.947 405.193 108.972 405.773 107.967 406.37 C106.137 407.46 104.308 408.553 102.482 409.649 C97.518 412.606 92.495 415.308 87.309 417.854 C84.103 419.445 80.986 421.17 77.875 422.938 C77.213 423.312 76.551 423.686 75.869 424.072 C66.585 429.343 57.382 434.754 48.168 440.147 C44.999 442.001 41.826 443.849 38.652 445.695 C36.581 446.901 34.509 448.107 32.438 449.312 C31.431 449.898 30.424 450.484 29.387 451.087 C24.5 453.936 19.636 456.815 14.811 459.767 C9.203 463.198 3.534 466.301 -2.375 469.188 C-18.675 477.169 -18.675 477.169 -22 484 C-22.284 486.783 -22.406 489.339 -22.382 492.119 C-22.384 492.527 -22.384 492.527 -22.397 494.595 C-22.409 497.344 -22.401 500.092 -22.392 502.842 C-22.397 504.828 -22.403 506.814 -22.41 508.8 C-22.426 514.267 -22.424 519.734 -22.418 525.202 C-22.415 531.094 -22.43 536.986 -22.443 542.878 C-22.463 553.757 -22.471 564.635 -22.472 575.514 C-22.474 585.561 -22.482 595.609 -22.498 605.657 C-22.499 606.323 -22.5 606.989 -22.501 607.675 C-22.506 611.058 -22.512 614.441 -22.517 617.823 C-22.556 641.788 -22.581 665.753 -22.599 689.718 C-22.603 695.526 -22.607 701.334 -22.611 707.142 C-22.612 707.862 -22.612 708.583 -22.613 709.325 C-22.625 726.064 -22.643 742.804 -22.662 759.543 C-22.663 760.26 -22.664 760.977 -22.665 761.716 C-22.683 778.082 -22.703 794.449 -22.725 810.815 C-22.726 811.502 -22.727 812.19 -22.728 812.898 C-22.736 819.081 -22.745 825.264 -22.753 831.447 C-22.775 847.542 -22.793 863.637 -22.803 879.732 C-22.81 889.823 -22.819 899.914 -22.831 910.005 C-22.838 915.834 -22.843 921.663 -22.844 927.492 C-22.844 932.821 -22.85 938.15 -22.858 943.48 C-22.861 945.414 -22.861 947.349 -22.86 949.283 C-22.859 951.9 -22.863 954.516 -22.87 957.133 C-22.868 957.895 -22.866 958.658 -22.864 959.443 C-22.877 962.569 -23.003 965.01 -24 968 C-31.497 969.101 -36.513 965.285 -42.75 961.5 C-44.476 960.478 -46.202 959.456 -47.928 958.434 C-49.734 957.361 -51.535 956.281 -53.335 955.199 C-56.976 953.011 -60.631 950.847 -64.289 948.688 C-68.809 946.018 -73.325 943.341 -77.836 940.656 C-79.89 939.437 -81.945 938.218 -84 937 C-85.044 936.38 -86.088 935.76 -87.164 935.122 C-92.768 931.819 -98.385 928.687 -104.25 925.875 C-108.937 923.626 -113.366 921.202 -117.749 918.406 C-122.418 915.489 -127.225 912.801 -132 910.062 C-134.331 908.722 -136.662 907.381 -138.992 906.039 C-139.58 905.701 -140.168 905.362 -140.774 905.013 C-146.57 901.676 -152.349 898.31 -158.125 894.938 C-158.611 894.654 -158.611 894.654 -161.071 893.219 C-166.192 890.231 -171.306 887.232 -176.414 884.223 C-177.475 883.599 -178.536 882.976 -179.628 882.334 C-181.632 881.157 -183.634 879.977 -185.633 878.793 C-190.315 876.045 -195.018 873.458 -199.895 871.07 C-206.452 867.842 -212.68 864.145 -218.938 860.375 C-221.321 858.948 -223.707 857.524 -226.094 856.102 C-226.683 855.75 -227.273 855.398 -227.88 855.036 C-233.193 851.871 -238.556 848.798 -243.938 845.75 C-251.699 841.351 -259.374 836.825 -266.992 832.183 C-274.692 827.511 -282.613 823.276 -290.551 819.027 C-305.733 810.897 -320.576 802.29 -335.32 793.395 C-335.981 792.997 -336.641 792.599 -337.322 792.188 C-339.023 791.162 -340.721 790.13 -342.418 789.098 C-345.304 787.376 -348.244 785.77 -351.199 784.172 C-357.09 780.979 -362.856 777.594 -368.625 774.188 C-376.39 769.627 -384.196 765.211 -392.183 761.054 C-398.9 757.555 -405.443 753.79 -412 750 C-412.552 749.688 -412.552 749.688 -415.348 748.109 C-418.912 746.096 -422.46 744.055 -426 742 C-426.75 741.568 -427.499 741.135 -428.271 740.689 C-430.69 739.287 -433.096 737.864 -435.5 736.438 C-436.254 736.003 -437.008 735.568 -437.784 735.12 C-442.894 732.053 -448.674 728.183 -450.564 722.219 C-451.063 719.677 -451.105 717.352 -451.082 714.76 C-451.075 713.715 -451.069 712.671 -451.062 711.594 C-451.051 710.471 -451.039 709.348 -451.027 708.191 C-451.015 705.812 -451.002 703.432 -450.99 701.053 C-450.965 697.302 -450.937 693.552 -450.904 689.802 C-450.874 686.181 -450.856 682.562 -450.84 678.941 C-450.826 677.82 -450.813 676.699 -450.799 675.545 C-450.797 675.021 -450.797 675.021 -450.789 672.369 C-450.781 671.451 -450.774 670.533 -450.766 669.586 C-451.128 665.586 -452.155 662.845 -455 660 C-457.064 659.75 -457.064 659.75 -459.669 659.749 C-460.66 659.744 -461.65 659.739 -462.671 659.734 C-463.767 659.739 -464.863 659.744 -465.993 659.748 C-467.151 659.745 -468.31 659.743 -469.503 659.739 C-472.729 659.733 -475.955 659.736 -479.18 659.742 C-482.656 659.746 -486.131 659.739 -489.606 659.734 C-495.633 659.725 -501.66 659.723 -507.687 659.726 C-516.411 659.729 -525.136 659.717 -533.861 659.701 C-548.029 659.675 -562.198 659.655 -576.367 659.642 C-576.791 659.641 -576.791 659.641 -578.938 659.639 C-590.968 659.628 -602.997 659.623 -615.026 659.62 C-615.872 659.62 -616.719 659.619 -617.59 659.619 C-618.435 659.619 -619.281 659.619 -620.151 659.619 C-634.256 659.615 -648.361 659.596 -662.466 659.564 C-671.165 659.545 -679.863 659.539 -688.562 659.55 C-694.529 659.556 -700.495 659.548 -706.462 659.529 C-709.903 659.518 -713.343 659.514 -716.783 659.527 C-720.519 659.538 -724.255 659.525 -727.991 659.506 C-729.07 659.515 -730.148 659.524 -731.259 659.533 C-740.591 659.439 -748.603 657.111 -755.531 650.641 C-761.221 644.285 -762.279 637.745 -762.145 629.484 C-761.729 622.334 -758.977 617.018 -754 612 C-747.887 607.545 -742.664 604.879 -735.065 604.87 C-734.066 604.866 -733.067 604.862 -732.038 604.859 C-730.943 604.86 -729.848 604.861 -728.719 604.862 C-727.554 604.859 -726.389 604.856 -725.189 604.853 C-721.954 604.847 -718.72 604.844 -715.485 604.843 C-711.997 604.842 -708.509 604.834 -705.021 604.827 C-698.976 604.815 -692.932 604.807 -686.888 604.801 C-677.339 604.79 -667.79 604.77 -658.24 604.748 C-654.974 604.74 -651.708 604.733 -648.442 604.725 C-647.626 604.724 -646.81 604.722 -645.969 604.72 C-636.678 604.699 -627.388 604.68 -618.098 604.662 C-617.249 604.66 -616.399 604.659 -615.524 604.657 C-601.75 604.631 -587.975 604.612 -574.2 604.596 C-560.065 604.578 -545.929 604.549 -531.794 604.511 C-523.071 604.487 -514.347 604.473 -505.624 604.471 C-499.651 604.469 -493.677 604.456 -487.704 604.435 C-484.255 604.423 -480.805 604.416 -477.356 604.422 C-473.622 604.425 -469.888 604.411 -466.154 604.392 C-465.605 604.395 -465.605 604.395 -462.828 604.409 C-461.832 604.4 -460.835 604.391 -459.809 604.382 C-458.946 604.381 -458.084 604.379 -457.195 604.378 C-454.509 603.916 -453.621 603.157 -452 601 C-451.628 598.58 -451.628 598.58 -451.637 595.746 C-451.637 594.727 -451.638 593.708 -451.639 592.658 C-451.655 591.595 -451.671 590.533 -451.688 589.438 C-451.684 588.371 -451.681 587.304 -451.678 586.205 C-451.733 578.267 -451.733 578.267 -454 576 C-456.91 575.744 -456.91 575.744 -460.716 575.735 C-461.066 575.733 -461.066 575.733 -462.833 575.722 C-465.185 575.709 -467.537 575.711 -469.889 575.713 C-471.571 575.707 -473.253 575.7 -474.935 575.692 C-478.563 575.677 -482.192 575.669 -485.821 575.664 C-491.561 575.658 -497.301 575.636 -503.042 575.612 C-515.236 575.563 -527.431 575.531 -539.625 575.5 C-552.768 575.467 -565.912 575.431 -579.055 575.376 C-584.758 575.353 -590.461 575.339 -596.164 575.332 C-599.719 575.326 -603.275 575.312 -606.831 575.296 C-608.475 575.29 -610.12 575.288 -611.765 575.289 C-614.017 575.29 -616.269 575.279 -618.522 575.265 C-619.78 575.262 -621.038 575.259 -622.335 575.256 C-631.519 574.614 -638.878 571.5 -645.312 564.875 C-649.716 559.34 -651.443 552.313 -650.875 545.312 C-649.702 538.327 -647.492 531.777 -642 527 C-635.244 522.528 -630.128 520.878 -622.023 520.862 C-621.672 520.861 -621.672 520.861 -619.895 520.853 C-617.542 520.845 -615.189 520.844 -612.836 520.842 C-611.149 520.838 -609.462 520.832 -607.775 520.827 C-604.142 520.816 -600.509 520.807 -596.876 520.801 C-591.132 520.79 -585.388 520.77 -579.644 520.748 C-563.311 520.686 -546.977 520.632 -530.644 520.599 C-521.623 520.58 -512.602 520.551 -503.581 520.511 C-498.808 520.49 -494.034 520.474 -489.26 520.472 C-484.771 520.47 -480.282 520.454 -475.793 520.427 C-474.146 520.42 -472.498 520.418 -470.851 520.422 C-468.602 520.425 -466.353 520.411 -464.104 520.392 C-462.846 520.389 -461.587 520.385 -460.29 520.382 C-457 520 -457 520 -452 517 C-452 509.41 -452 501.82 -452 494 C-457.625 490.625 -457.625 490.625 -462.531 490.621 C-463.637 490.613 -464.744 490.604 -465.883 490.596 C-467.094 490.602 -468.304 490.608 -469.551 490.615 C-470.84 490.609 -472.13 490.604 -473.459 490.599 C-477.037 490.585 -480.615 490.589 -484.193 490.597 C-488.053 490.601 -491.913 490.589 -495.772 490.578 C-502.46 490.562 -509.148 490.557 -515.837 490.559 C-525.514 490.561 -535.192 490.545 -544.869 490.524 C-560.58 490.491 -576.291 490.469 -592.002 490.456 C-592.943 490.456 -593.883 490.455 -594.852 490.454 C-598.662 490.451 -602.472 490.448 -606.283 490.445 C-616.767 490.436 -627.252 490.425 -637.737 490.413 C-638.675 490.412 -639.614 490.411 -640.581 490.41 C-656.231 490.392 -671.881 490.366 -687.53 490.335 C-697.183 490.317 -706.836 490.306 -716.49 490.305 C-723.104 490.304 -729.718 490.296 -736.333 490.282 C-740.149 490.275 -743.966 490.271 -747.782 490.275 C-751.92 490.28 -756.058 490.27 -760.195 490.258 C-761.401 490.262 -762.607 490.266 -763.849 490.27 C-773.813 490.22 -780.481 488.846 -788 482 C-792.429 476.614 -794.549 470.48 -795.438 463.625 C-794.503 455.886 -792.186 449.008 -786 444 C-785.051 443.113 -784.102 442.226 -783.125 441.312 C-776.099 436.113 -768.571 436.714 -760.151 436.742 C-759.502 436.74 -759.502 436.74 -756.218 436.731 C-752.628 436.721 -749.037 436.723 -745.446 436.727 C-741.569 436.73 -737.693 436.721 -733.816 436.713 C-727.102 436.701 -720.389 436.696 -713.675 436.695 C-703.964 436.694 -694.253 436.679 -684.541 436.66 C-668.779 436.629 -653.017 436.605 -637.255 436.587 C-636.312 436.586 -635.369 436.585 -634.397 436.583 C-623.87 436.572 -613.343 436.561 -602.816 436.553 C-598.995 436.55 -595.175 436.547 -591.354 436.544 C-590.411 436.543 -589.469 436.542 -588.497 436.541 C-572.79 436.528 -557.083 436.504 -541.375 436.47 C-531.685 436.45 -521.995 436.439 -512.305 436.442 C-505.67 436.443 -499.036 436.433 -492.402 436.415 C-488.571 436.405 -484.741 436.4 -480.911 436.408 C-476.763 436.417 -472.616 436.402 -468.468 436.385 C-467.251 436.391 -466.034 436.398 -464.781 436.404 C-464.227 436.4 -464.227 436.4 -461.423 436.379 C-460.466 436.378 -459.508 436.378 -458.521 436.377 C-455.545 435.932 -454.17 435.054 -452 433 C-451.406 430.903 -451.406 430.903 -451.285 428.508 C-451.239 427.638 -451.194 426.768 -451.146 425.871 C-451.133 425.418 -451.133 425.418 -451.062 423.125 C-451.035 422.676 -451.035 422.676 -450.896 420.402 C-450.732 416.486 -450.762 413.617 -452.184 409.93 C-454.811 407.139 -457.263 407.075 -461.03 406.913 C-463.591 406.87 -466.149 406.866 -468.711 406.873 C-469.205 406.872 -469.205 406.872 -471.708 406.868 C-475.042 406.863 -478.377 406.866 -481.712 406.869 C-484.118 406.867 -486.525 406.865 -488.932 406.862 C-494.175 406.858 -499.419 406.856 -504.662 406.857 C-512.459 406.859 -520.257 406.855 -528.054 406.849 C-540.367 406.841 -552.68 406.835 -564.993 406.832 C-584.54 406.827 -604.087 406.811 -623.633 406.792 C-627.793 406.788 -631.952 406.784 -636.111 406.781 C-636.94 406.78 -637.77 406.779 -638.624 406.778 C-640.304 406.777 -641.984 406.775 -643.664 406.773 C-645.351 406.772 -647.037 406.77 -648.724 406.769 C-668.614 406.75 -688.504 406.733 -708.395 406.717 C-709.265 406.716 -710.135 406.716 -711.032 406.715 C-739.261 406.693 -767.49 406.681 -795.718 406.673 C-824.737 406.666 -853.756 406.645 -882.774 406.608 C-886.872 406.603 -890.969 406.598 -895.067 406.593 C-895.873 406.592 -896.679 406.591 -897.51 406.59 C-910.493 406.575 -923.476 406.574 -936.459 406.578 C-949.506 406.583 -962.553 406.573 -975.599 406.548 C-983.351 406.534 -991.103 406.531 -998.856 406.544 C-1004.642 406.553 -1010.429 406.54 -1016.215 406.52 C-1018.558 406.515 -1020.9 406.517 -1023.243 406.526 C-1026.424 406.537 -1029.605 406.524 -1032.786 406.505 C-1033.698 406.514 -1034.61 406.523 -1035.549 406.533 C-1044.19 406.43 -1051.115 403.482 -1057.496 397.648 C-1063.341 391.242 -1064.309 384.613 -1064.207 376.223 C-1063.712 368.514 -1059.53 363.073 -1054 358 C-1046.204 352.594 -1039.526 351.851 -1030.257 351.87 C-1029.761 351.869 -1029.761 351.869 -1027.249 351.864 C-1023.903 351.858 -1020.556 351.86 -1017.21 351.862 C-1014.795 351.86 -1012.38 351.857 -1009.964 351.853 C-1004.703 351.847 -999.441 351.844 -994.18 351.844 C-986.356 351.843 -978.532 351.837 -970.708 351.829 C-958.354 351.817 -946 351.808 -933.646 351.802 C-914.042 351.792 -894.437 351.773 -874.833 351.75 C-867.293 351.742 -859.754 351.734 -852.214 351.725 C-851.376 351.724 -850.538 351.724 -849.675 351.723 C-829.733 351.701 -809.791 351.681 -789.849 351.662 C-788.976 351.661 -788.103 351.66 -787.204 351.66 C-766.836 351.641 -746.467 351.624 -726.098 351.611 C-725.222 351.611 -724.345 351.61 -723.442 351.61 C-716.377 351.605 -709.312 351.601 -702.247 351.597 C-673.143 351.58 -644.039 351.553 -614.936 351.514 C-610.829 351.508 -606.723 351.503 -602.616 351.498 C-602.212 351.497 -602.212 351.497 -600.167 351.495 C-587.138 351.478 -574.11 351.473 -561.081 351.472 C-547.998 351.47 -534.916 351.458 -521.834 351.435 C-514.053 351.421 -506.273 351.416 -498.493 351.423 C-492.697 351.428 -486.9 351.416 -481.103 351.399 C-478.749 351.394 -476.394 351.395 -474.04 351.401 C-470.857 351.408 -467.674 351.398 -464.491 351.382 C-464.027 351.385 -464.027 351.385 -461.675 351.402 C-460.831 351.394 -459.987 351.386 -459.118 351.378 C-458.754 351.378 -458.754 351.378 -456.911 351.376 C-454.439 350.89 -453.543 349.953 -452 348 C-451.624 345.979 -451.624 345.979 -451.621 343.624 C-451.617 343.177 -451.617 343.177 -451.597 340.914 C-451.6 340.425 -451.6 340.425 -451.615 337.948 C-451.61 336.915 -451.604 335.883 -451.599 334.818 C-451.589 332.573 -451.586 330.327 -451.589 328.081 C-451.594 324.525 -451.58 320.969 -451.561 317.413 C-451.524 309.859 -451.51 302.304 -451.5 294.75 C-451.488 286.01 -451.466 277.271 -451.42 268.531 C-451.406 265.03 -451.411 261.53 -451.415 258.03 C-451.406 255.876 -451.396 253.723 -451.385 251.569 C-451.388 251.084 -451.388 251.084 -451.403 248.628 C-451.346 242.302 -450.672 237.195 -446.47 232.171 C-442.097 228.662 -437.578 225.868 -432.625 223.25 C-431.025 222.383 -429.426 221.515 -427.828 220.645 C-427.023 220.207 -426.218 219.77 -425.389 219.319 C-421.673 217.267 -418.023 215.107 -414.375 212.938 C-409.178 209.857 -403.961 206.823 -398.688 203.875 C-380.137 193.494 -361.726 182.88 -343.406 172.098 C-335.237 167.293 -327.022 162.573 -318.775 157.902 C-314.494 155.466 -310.303 152.961 -306.188 150.25 C-302.167 147.624 -298.003 145.465 -293.688 143.375 C-284.193 138.755 -275.221 133.315 -266.169 127.891 C-260.957 124.781 -255.718 121.715 -250.48 118.649 C-248.628 117.564 -246.776 116.479 -244.924 115.394 C-235.937 110.128 -226.942 104.877 -217.938 99.641 C-213.493 97.053 -209.062 94.444 -204.656 91.789 C-201.368 89.81 -198.067 87.882 -194.688 86.062 C-193.774 85.567 -192.86 85.072 -191.918 84.562 C-189.882 83.473 -187.843 82.39 -185.801 81.312 C-179.571 78.01 -173.582 74.523 -167.672 70.68 C-164.165 68.475 -160.535 66.549 -156.883 64.598 C-153.69 62.828 -150.599 60.93 -147.5 59 C-143.555 56.543 -139.598 54.192 -135.5 52 C-130.213 49.172 -125.146 46.038 -120.055 42.875 C-115.269 39.937 -110.371 37.248 -105.402 34.633 C-94.751 28.992 -84.397 22.852 -74.002 16.756 C-69.553 14.154 -65.089 11.576 -60.625 9 C-55.892 6.268 -51.173 3.522 -46.5 0.688 C-43.092 -1.366 -39.657 -3.364 -36.188 -5.312 C-35.315 -5.804 -34.442 -6.295 -33.543 -6.801 C-21.469 -12.495 -10.572 -5.81 0 0 Z M-55.5 86.938 C-56.644 87.622 -57.789 88.306 -58.934 88.99 C-61.187 90.336 -63.439 91.683 -65.692 93.03 C-75.683 98.98 -85.735 104.771 -96.07 110.105 C-108.318 116.445 -120.221 123.289 -132.099 130.292 C-136.493 132.879 -140.901 135.442 -145.312 138 C-146.034 138.42 -146.755 138.84 -147.498 139.273 C-152.322 142.071 -157.201 144.755 -162.101 147.416 C-167.136 150.167 -172.126 152.997 -177.125 155.812 C-184.305 159.851 -191.499 163.834 -198.812 167.625 C-206.047 171.384 -213.011 175.54 -219.979 179.768 C-224.934 182.772 -229.919 185.655 -235.035 188.379 C-240.027 191.108 -244.928 193.996 -249.838 196.867 C-254.912 199.825 -260.038 202.669 -265.201 205.469 C-269.834 208.004 -274.413 210.634 -279 213.25 C-286.309 217.406 -293.659 221.446 -301.125 225.312 C-307.521 228.627 -313.684 232.121 -319.75 236.016 C-323.433 238.264 -327.199 240.314 -330.994 242.367 C-339.414 246.94 -347.744 251.678 -356.096 256.375 C-358.541 257.743 -360.994 259.098 -363.453 260.441 C-379.789 269.421 -379.789 269.421 -382.075 276.178 C-382.995 279.979 -383.251 283.19 -383.252 287.092 C-383.255 287.773 -383.257 288.455 -383.26 289.157 C-383.268 291.434 -383.261 293.71 -383.254 295.987 C-383.256 297.639 -383.259 299.29 -383.263 300.942 C-383.272 305.475 -383.268 310.008 -383.261 314.542 C-383.257 319.433 -383.264 324.324 -383.269 329.215 C-383.278 338.794 -383.276 348.373 -383.271 357.952 C-383.266 365.735 -383.265 373.519 -383.268 381.303 C-383.268 382.411 -383.268 383.518 -383.269 384.659 C-383.269 386.909 -383.27 389.159 -383.271 391.408 C-383.276 412.507 -383.27 433.606 -383.259 454.705 C-383.25 472.815 -383.252 490.924 -383.261 509.033 C-383.271 530.058 -383.276 551.082 -383.27 572.107 C-383.269 574.348 -383.268 576.589 -383.268 578.831 C-383.267 579.933 -383.267 581.036 -383.267 582.172 C-383.265 589.948 -383.268 597.725 -383.273 605.501 C-383.278 614.975 -383.277 624.449 -383.266 633.924 C-383.261 638.759 -383.259 643.594 -383.265 648.429 C-383.271 652.853 -383.268 657.278 -383.257 661.702 C-383.255 663.304 -383.256 664.906 -383.261 666.509 C-383.267 668.684 -383.261 670.859 -383.252 673.034 C-383.251 674.243 -383.251 675.452 -383.251 676.698 C-382.758 683.182 -380.91 686.769 -376 691 C-374.118 692.301 -372.191 693.537 -370.23 694.715 C-369.106 695.394 -367.981 696.074 -366.822 696.774 C-365.61 697.495 -364.399 698.217 -363.188 698.938 C-361.937 699.689 -360.688 700.44 -359.438 701.193 C-350.315 706.673 -341.134 712.057 -331.905 717.357 C-326.797 720.303 -321.849 723.387 -316.968 726.694 C-314.55 728.298 -312.063 729.706 -309.5 731.062 C-308.568 731.561 -307.636 732.06 -306.676 732.574 C-305.793 733.045 -304.91 733.515 -304 734 C-300.989 735.647 -297.993 737.32 -295 739 C-294.078 739.516 -293.157 740.031 -292.207 740.562 C-280.948 746.926 -269.893 753.632 -258.815 760.305 C-256.559 761.664 -254.3 763.019 -252.039 764.371 C-250.933 765.032 -249.827 765.694 -248.688 766.375 C-248.409 766.541 -248.409 766.541 -247.001 767.382 C-242.944 769.813 -238.913 772.282 -234.887 774.762 C-221.339 783.089 -207.681 791.1 -193.681 798.647 C-188.054 801.695 -182.632 804.825 -177.357 808.448 C-171.253 812.467 -164.774 815.92 -158.418 819.521 C-153.356 822.411 -148.458 825.297 -143.786 828.78 C-140.679 830.902 -137.323 832.579 -134.006 834.349 C-130.835 836.091 -127.752 837.94 -124.668 839.832 C-123.603 840.485 -122.537 841.138 -121.439 841.811 C-119.249 843.159 -117.061 844.514 -114.877 845.873 C-113.818 846.52 -112.759 847.166 -111.668 847.832 C-110.722 848.417 -109.776 849.002 -108.802 849.605 C-105.779 851.11 -103.366 851.785 -100 852 C-98 850 -98 850 -97.753 847.195 C-97.754 845.984 -97.755 844.774 -97.757 843.527 C-97.755 842.851 -97.753 842.175 -97.751 841.479 C-97.746 839.193 -97.756 836.907 -97.766 834.621 C-97.766 832.974 -97.765 831.328 -97.763 829.681 C-97.761 825.138 -97.771 820.596 -97.783 816.053 C-97.793 811.161 -97.792 806.268 -97.793 801.376 C-97.795 792.892 -97.805 784.408 -97.819 775.924 C-97.84 763.65 -97.848 751.376 -97.854 739.102 C-97.863 719.18 -97.881 699.257 -97.904 679.335 C-97.905 678.142 -97.907 676.949 -97.908 675.719 C-97.909 675.122 -97.909 675.122 -97.913 672.099 C-97.932 655.171 -97.95 638.244 -97.966 621.317 C-97.967 620.126 -97.968 618.936 -97.969 617.71 C-97.987 597.87 -98.001 578.03 -98.013 558.19 C-98.02 545.946 -98.032 533.703 -98.049 521.459 C-98.061 513.068 -98.069 504.678 -98.074 496.288 C-98.078 491.444 -98.083 486.601 -98.092 481.758 C-98.101 477.324 -98.105 472.891 -98.105 468.458 C-98.106 466.853 -98.109 465.249 -98.114 463.645 C-98.119 461.464 -98.119 459.283 -98.117 457.103 C-98.119 455.891 -98.12 454.68 -98.122 453.432 C-97.936 448.204 -97.684 443.324 -94.875 438.812 C-94.501 438.18 -94.127 437.547 -93.742 436.895 C-91.252 434.187 -88.199 432.723 -85 431 C-83.359 430.054 -81.721 429.102 -80.086 428.145 C-79.175 427.613 -78.264 427.082 -77.326 426.535 C-76.839 426.251 -76.839 426.251 -74.375 424.812 C-73.337 424.207 -72.298 423.601 -71.229 422.977 C-63.593 418.519 -55.963 414.05 -48.336 409.577 C-46.499 408.5 -44.662 407.423 -42.824 406.346 C-41.606 405.632 -40.387 404.917 -39.168 404.203 C-38.569 403.852 -37.97 403.501 -37.354 403.14 C-34.414 401.417 -31.475 399.692 -28.538 397.963 C-25.297 396.056 -22.055 394.153 -18.812 392.25 C-17.864 391.69 -16.915 391.13 -15.938 390.553 C-10.8 387.543 -5.62 384.735 -0.259 382.143 C2.967 380.511 6.017 378.623 9.098 376.734 C12.709 374.576 16.384 372.542 20.062 370.5 C25.172 367.656 30.088 364.685 34.91 361.371 C38.018 359.332 41.283 357.625 44.559 355.871 C57.646 348.755 70.49 341.18 83.277 333.541 C89.438 329.873 95.691 326.407 102 323 C112.339 317.343 122.483 311.37 132.61 305.342 C142.37 299.534 152.186 293.831 162.037 288.176 C167.898 284.806 173.724 281.39 179.5 277.875 C184.092 275.083 188.745 272.558 193.582 270.215 C198.529 267.729 203.25 264.839 208 262 C208.752 261.552 209.503 261.103 210.278 260.642 C222.133 253.567 233.972 246.467 245.625 239.062 C249 237 249 237 252 236 C252 234.35 252 232.7 252 231 C250.956 230.429 249.912 229.858 248.836 229.27 C235.396 221.881 222.208 214.092 209.039 206.233 C207.064 205.055 205.089 203.878 203.112 202.702 C201.267 201.605 199.424 200.505 197.583 199.401 C192.643 196.465 187.646 193.797 182.488 191.265 C178.19 189.08 174.073 186.6 169.938 184.125 C169.468 183.846 169.468 183.846 167.092 182.434 C161.968 179.384 156.858 176.314 151.75 173.238 C149.646 171.971 147.542 170.704 145.438 169.438 C144.396 168.811 143.355 168.184 142.283 167.538 C134.606 162.929 126.869 158.437 119.074 154.031 C114.091 151.213 109.162 148.32 104.266 145.353 C101.384 143.632 98.451 142.012 95.512 140.391 C86.015 135.133 76.71 129.625 67.47 123.932 C62.622 120.957 57.718 118.159 52.699 115.48 C49.01 113.457 45.422 111.276 41.823 109.096 C33.41 104.015 24.914 99.076 16.43 94.116 C15.218 93.407 14.005 92.698 12.793 91.988 C12.206 91.645 11.619 91.301 11.014 90.948 C7.486 88.88 3.972 86.79 0.469 84.68 C-4.605 81.625 -9.752 78.746 -15 76 C-15.65 75.656 -16.299 75.312 -16.969 74.957 C-30.706 68.307 -44.039 80.044 -55.5 86.938 Z " fill="#023819" transform="translate(1166,151)"/>
<path d="M0 0 C4.142 2.25 8.113 4.758 12.078 7.305 C14.769 8.978 17.534 10.401 20.379 11.797 C25.542 14.338 30.463 17.191 35.395 20.152 C37.33 21.305 39.267 22.458 41.203 23.609 C42.23 24.221 43.258 24.833 44.316 25.463 C50.182 28.946 56.07 32.392 61.957 35.84 C63.194 36.565 64.431 37.29 65.668 38.015 C74.583 43.238 83.51 48.441 92.44 53.638 C98.547 57.199 104.618 60.814 110.666 64.474 C115.882 67.617 121.202 70.55 126.582 73.402 C126.306 76.72 125.885 78.105 123.477 80.473 C120.189 82.665 116.79 84.498 113.27 86.277 C105.097 90.508 97.16 95.09 89.228 99.753 C81.34 104.387 73.409 108.941 65.457 113.465 C56.992 118.281 48.571 123.162 40.207 128.152 C32.07 133.004 23.817 137.596 15.481 142.095 C9.23 145.477 3.076 148.989 -3.032 152.623 C-8.48 155.862 -13.971 159.019 -19.48 162.152 C-27.155 166.521 -34.796 170.944 -42.418 175.402 C-50.196 179.947 -57.981 184.479 -65.793 188.965 C-66.618 189.441 -67.443 189.917 -68.293 190.408 C-72.241 192.668 -76.207 194.818 -80.293 196.82 C-86.041 199.656 -91.529 202.89 -97.043 206.152 C-103.844 210.15 -110.648 214.131 -117.543 217.965 C-120.171 219.438 -122.796 220.918 -125.418 222.402 C-126.319 222.912 -127.22 223.421 -128.149 223.946 C-131.142 225.648 -134.125 227.367 -137.105 229.09 C-137.578 229.357 -137.578 229.357 -139.971 230.711 C-146.257 234.373 -151.825 238.271 -154.418 245.402 C-155.573 251.605 -155.546 257.695 -155.516 263.99 C-155.515 264.573 -155.515 264.573 -155.511 267.522 C-155.506 270.754 -155.497 273.986 -155.487 277.218 C-155.476 280.732 -155.472 284.246 -155.468 287.76 C-155.46 293.89 -155.449 300.019 -155.436 306.149 C-155.403 322.768 -155.391 339.388 -155.387 356.008 C-155.386 356.881 -155.386 357.754 -155.386 358.654 C-155.372 403.995 -155.622 449.334 -155.9 494.673 C-155.918 497.665 -155.936 500.656 -155.954 503.647 C-156.102 527.899 -156.256 552.151 -156.418 576.402 C-161.132 577.528 -161.132 577.528 -163.707 576.398 C-164.478 575.884 -165.249 575.37 -166.043 574.84 C-169.426 572.665 -172.789 570.636 -176.355 568.777 C-183.195 565.084 -189.69 560.861 -196.242 556.688 C-201.502 553.339 -206.8 550.053 -212.105 546.777 C-220.895 541.348 -229.663 535.886 -238.418 530.402 C-243.127 527.453 -247.837 524.506 -252.551 521.566 C-253.753 520.817 -254.955 520.067 -256.156 519.316 C-261.678 515.869 -267.222 512.489 -272.9 509.305 C-293.26 497.876 -293.26 497.876 -296.418 488.402 C-296.649 485.456 -296.829 482.528 -296.962 479.577 C-297.004 478.688 -297.046 477.799 -297.089 476.883 C-297.533 466.793 -297.636 456.705 -297.715 446.608 C-297.735 444.503 -297.754 442.398 -297.775 440.294 C-297.828 434.621 -297.876 428.947 -297.923 423.274 C-297.974 417.235 -298.029 411.196 -298.083 405.157 C-298.174 394.96 -298.262 384.763 -298.348 374.566 C-298.435 364.267 -298.525 353.969 -298.618 343.67 C-298.895 313.215 -299.143 282.759 -299.348 252.303 C-299.399 244.847 -299.458 237.391 -299.522 229.934 C-299.594 221.519 -299.651 213.103 -299.688 204.687 C-299.707 200.536 -299.731 196.386 -299.774 192.236 C-299.811 188.484 -299.831 184.732 -299.835 180.98 C-299.841 179.011 -299.868 177.042 -299.895 175.073 C-299.876 166.947 -298.779 161.841 -293.802 155.268 C-289.5 151.079 -285.037 148.122 -279.73 145.34 C-278.941 144.914 -278.152 144.487 -277.338 144.048 C-272.044 141.207 -266.701 138.463 -261.289 135.852 C-252.541 131.436 -244.174 126.327 -235.766 121.307 C-230.308 118.063 -224.803 114.942 -219.218 111.923 C-214.276 109.239 -209.382 106.47 -204.48 103.715 C-192.628 97.065 -180.745 90.473 -168.805 83.982 C-162.188 80.383 -155.603 76.73 -149.043 73.027 C-148.041 72.462 -147.04 71.897 -146.008 71.315 C-139.591 67.678 -133.266 63.944 -127.039 59.988 C-124.418 58.402 -124.418 58.402 -121.593 56.998 C-118.659 55.524 -115.835 53.953 -113.004 52.293 C-111.995 51.703 -110.985 51.112 -109.945 50.504 C-108.905 49.893 -107.865 49.282 -106.793 48.652 C-104.738 47.449 -102.684 46.246 -100.629 45.043 C-97.491 43.205 -94.355 41.365 -91.225 39.514 C-85.949 36.406 -80.7 33.461 -75.168 30.84 C-64.828 25.813 -55.018 19.843 -45.126 14 C-11.812 -5.654 -11.812 -5.654 0 0 Z " fill="#023819" transform="translate(1141.41796875,301.59765625)"/>
<path d="M0 0 C0.691 -0.003 1.382 -0.006 2.093 -0.009 C4.42 -0.017 6.746 -0.011 9.073 -0.005 C10.737 -0.008 12.401 -0.011 14.065 -0.015 C18.597 -0.025 23.128 -0.021 27.66 -0.015 C32.406 -0.01 37.153 -0.014 41.899 -0.017 C49.883 -0.021 57.867 -0.016 65.851 -0.007 C75.058 0.004 84.264 0.001 93.471 -0.01 C101.383 -0.02 109.296 -0.021 117.209 -0.016 C121.93 -0.012 126.652 -0.012 131.373 -0.019 C135.824 -0.024 140.276 -0.02 144.727 -0.009 C146.352 -0.006 147.976 -0.007 149.601 -0.011 C169.819 -0.062 187.505 4.27 206.276 11.465 C207.932 12.093 209.599 12.692 211.269 13.281 C224.68 18.148 235.928 26.743 246.355 36.254 C246.699 36.562 246.699 36.562 248.437 38.121 C255.409 44.699 260.847 52.839 265.355 61.254 C265.815 62.016 266.276 62.778 266.75 63.563 C270.73 70.345 273.103 77.149 275.277 84.652 C276.355 88.254 276.355 88.254 277.429 90.707 C278.726 94.273 279.046 97.879 279.418 101.629 C279.496 102.339 279.574 103.05 279.654 103.781 C284.484 149.685 287.78 204.163 257.793 242.254 C250.165 251.153 240.968 257.675 231.355 264.254 C230.533 264.824 229.71 265.393 228.863 265.981 C206.033 280.753 176.326 285.366 149.663 285.428 C148.446 285.434 147.228 285.441 145.974 285.448 C142.671 285.465 139.368 285.479 136.065 285.491 C132.597 285.506 129.129 285.527 125.661 285.549 C113.877 285.62 102.092 285.68 90.308 285.731 C83.78 285.759 77.253 285.794 70.725 285.837 C66.6 285.864 62.475 285.882 58.35 285.893 C55.194 285.905 52.038 285.929 48.882 285.951 C48.31 285.951 48.31 285.951 45.414 285.953 C44.376 285.962 43.337 285.972 42.267 285.982 C41.814 285.984 41.814 285.984 39.523 285.995 C37.355 286.254 37.355 286.254 35.355 288.254 C34.373 293.223 34.22 298.115 34.255 303.161 C34.256 303.927 34.258 304.694 34.259 305.483 C34.264 308.034 34.277 310.584 34.289 313.135 C34.294 314.971 34.299 316.806 34.303 318.641 C34.313 322.585 34.326 326.529 34.341 330.473 C34.364 336.709 34.377 342.944 34.389 349.18 C34.422 366.909 34.464 384.637 34.527 402.366 C34.561 412.164 34.585 421.961 34.597 431.759 C34.605 437.959 34.626 444.158 34.657 450.358 C34.673 454.212 34.676 458.066 34.676 461.919 C34.679 463.707 34.686 465.495 34.699 467.283 C34.716 469.722 34.715 472.161 34.709 474.601 C34.719 475.309 34.728 476.017 34.738 476.747 C34.699 481.481 33.758 484.852 30.355 488.254 C27.808 488.38 25.29 488.443 22.742 488.457 C21.976 488.463 21.21 488.468 20.421 488.474 C18.796 488.484 17.171 488.49 15.546 488.494 C13.063 488.504 10.582 488.535 8.099 488.566 C6.522 488.573 4.944 488.578 3.367 488.582 C2.996 488.588 2.996 488.588 1.119 488.62 C-1.798 488.607 -4.18 488.472 -6.842 487.226 C-9.563 484.249 -9.192 481.179 -9.143 477.347 C-9.148 476.529 -9.153 475.711 -9.158 474.867 C-9.171 472.101 -9.155 469.336 -9.139 466.57 C-9.143 464.577 -9.147 462.583 -9.154 460.59 C-9.167 455.093 -9.155 449.597 -9.138 444.101 C-9.125 438.181 -9.135 432.26 -9.142 426.34 C-9.152 415.406 -9.143 404.473 -9.126 393.54 C-9.11 383.441 -9.102 373.342 -9.102 363.243 C-9.102 362.574 -9.102 361.905 -9.102 361.216 C-9.102 358.5 -9.102 355.784 -9.103 353.068 C-9.105 327.576 -9.085 302.085 -9.054 276.593 C-9.027 253.929 -9.014 231.264 -9.015 208.6 C-9.016 207.145 -9.016 205.689 -9.016 204.234 C-9.016 203.514 -9.016 202.795 -9.016 202.054 C-9.016 198.432 -9.016 194.81 -9.016 191.189 C-9.016 190.475 -9.016 189.76 -9.016 189.024 C-9.017 170.104 -9.008 151.183 -8.996 132.263 C-8.995 131.927 -8.995 131.927 -8.994 130.224 C-8.993 127.519 -8.991 124.814 -8.989 122.108 C-8.983 112.683 -8.98 103.258 -8.979 93.832 C-8.978 81.689 -8.969 69.546 -8.95 57.402 C-8.941 51.543 -8.935 45.684 -8.937 39.824 C-8.939 34.469 -8.932 29.113 -8.918 23.757 C-8.914 21.812 -8.914 19.866 -8.917 17.921 C-8.921 15.292 -8.913 12.664 -8.902 10.035 C-8.906 9.266 -8.91 8.497 -8.915 7.705 C-8.857 0.455 -6.875 0.004 0 0 Z M35.576 40.784 C33.864 44.247 33.941 47.49 33.974 51.27 C33.97 52.084 33.965 52.897 33.96 53.736 C33.948 56.467 33.958 59.197 33.967 61.928 C33.963 63.884 33.958 65.841 33.951 67.797 C33.937 73.113 33.943 78.429 33.952 83.745 C33.96 89.302 33.953 94.859 33.948 100.417 C33.943 109.749 33.95 119.081 33.964 128.413 C33.98 139.211 33.975 150.01 33.959 160.808 C33.945 170.071 33.943 179.334 33.951 188.597 C33.956 194.133 33.956 199.669 33.946 205.205 C33.938 210.408 33.944 215.611 33.961 220.814 C33.965 222.727 33.964 224.64 33.957 226.552 C33.949 229.157 33.959 231.761 33.974 234.365 C33.968 235.128 33.961 235.891 33.954 236.677 C34.011 241.753 34.011 241.753 35.705 244.22 C38.282 245.835 40.557 245.696 43.574 245.766 C44.225 245.783 44.225 245.783 47.518 245.874 C48.964 245.897 50.409 245.92 51.855 245.941 C53.376 245.974 54.897 246.007 56.419 246.041 C61.397 246.142 66.376 246.203 71.355 246.254 C71.774 246.258 71.774 246.258 73.893 246.28 C94.628 246.478 115.362 246.321 136.094 245.935 C138.07 245.898 140.047 245.864 142.023 245.833 C161.55 245.51 179.484 243.914 197.355 235.254 C197.67 235.112 197.67 235.112 199.261 234.395 C214.38 227.331 227.315 216.863 233.363 201.074 C233.69 200.144 234.018 199.213 234.355 198.254 C234.606 197.631 234.857 197.008 235.115 196.366 C237.575 189.857 237.907 183.73 238.043 176.816 C238.075 175.593 238.108 174.37 238.142 173.109 C238.411 161.514 238.456 149.915 238.48 138.316 C238.482 137.869 238.482 137.869 238.489 135.607 C238.555 106.134 238.555 106.134 234.98 96.254 C234.56 95.058 234.14 93.861 233.707 92.629 C228.303 79.137 218.828 66.89 206.355 59.254 C204.855 58.15 203.355 57.046 201.855 55.941 C184.899 44.113 165.631 38.946 145.138 38.963 C143.971 38.957 142.804 38.95 141.601 38.943 C137.78 38.924 133.958 38.92 130.136 38.918 C128.144 38.913 126.151 38.908 124.158 38.903 C117.912 38.887 111.666 38.882 105.421 38.883 C98.982 38.885 92.543 38.863 86.104 38.832 C80.561 38.806 75.017 38.795 69.474 38.796 C66.169 38.797 62.865 38.789 59.56 38.77 C55.885 38.75 52.211 38.756 48.537 38.768 C47.443 38.757 46.349 38.746 45.222 38.734 C44.224 38.742 43.226 38.751 42.198 38.759 C41.33 38.758 40.462 38.757 39.568 38.756 C37.355 39.254 37.355 39.254 35.576 40.784 Z " fill="#023819" transform="translate(2394.6448516845703,399.74603271484375)"/>
<path d="M0 0 C0.346 -0.002 0.346 -0.002 2.095 -0.014 C3.551 -0.018 5.006 -0.009 6.462 0.012 C8.682 0.039 10.897 0.012 13.117 -0.02 C14.536 -0.016 15.956 -0.01 17.375 0 C18.658 0.006 19.94 0.011 21.262 0.017 C25.525 0.822 26.985 2.348 29.688 5.664 C31.397 9.082 30.859 13.001 30.877 16.764 C30.881 17.235 30.881 17.235 30.902 19.622 C30.92 21.674 30.935 23.726 30.948 25.778 C30.969 29.022 30.996 32.266 31.025 35.509 C31.094 43.565 31.154 51.622 31.214 59.678 C31.264 66.482 31.319 73.286 31.379 80.091 C31.406 83.294 31.427 86.497 31.447 89.7 C31.464 91.655 31.481 93.609 31.498 95.564 C31.502 96.461 31.506 97.358 31.511 98.282 C31.574 104.436 31.574 104.436 32.688 106.664 C33.816 106.67 34.945 106.676 36.109 106.682 C46.747 106.739 57.385 106.812 68.023 106.9 C73.492 106.945 78.962 106.984 84.431 107.01 C89.709 107.037 94.987 107.077 100.265 107.127 C102.278 107.144 104.292 107.155 106.306 107.162 C109.126 107.171 111.946 107.199 114.766 107.232 C115.183 107.231 115.183 107.231 117.29 107.227 C122.334 107.309 125.947 107.923 129.688 111.664 C129.97 116.262 129.919 120.871 129.938 125.477 C129.948 126.125 129.948 126.125 130 129.408 C130.003 130.031 130.003 130.031 130.016 133.184 C130.025 134.329 130.034 135.475 130.044 136.656 C129.628 140.17 129.295 141.283 126.688 143.664 C123.689 144.053 121.056 144.187 118.057 144.146 C117.175 144.15 116.294 144.154 115.385 144.158 C113.47 144.164 111.555 144.161 109.64 144.15 C106.609 144.133 103.58 144.14 100.55 144.154 C93.024 144.184 85.498 144.171 77.971 144.159 C71.614 144.151 65.256 144.159 58.899 144.188 C55.912 144.195 52.925 144.179 49.938 144.161 C48.108 144.167 46.278 144.174 44.448 144.182 C44.032 144.176 44.032 144.176 41.927 144.147 C38.551 144.183 36.136 144.399 33.202 146.132 C29.632 152.1 30.548 160.443 30.592 167.221 C30.594 168.14 30.595 169.06 30.597 170.007 C30.605 173.065 30.619 176.123 30.634 179.181 C30.641 181.383 30.647 183.585 30.653 185.787 C30.671 191.752 30.696 197.717 30.722 203.681 C30.744 208.666 30.762 213.651 30.781 218.637 C30.823 229.728 30.87 240.819 30.92 251.911 C30.923 252.575 30.926 253.24 30.929 253.924 C30.932 254.589 30.936 255.254 30.939 255.94 C30.988 266.722 31.026 277.504 31.061 288.286 C31.096 299.376 31.139 310.467 31.19 321.557 C31.218 327.775 31.243 333.994 31.26 340.213 C31.277 346.061 31.303 351.909 31.337 357.757 C31.347 359.899 31.355 362.042 31.358 364.184 C31.364 367.116 31.382 370.048 31.402 372.98 C31.401 373.82 31.4 374.661 31.399 375.526 C31.513 386.796 33.832 398.524 40.688 407.664 C41.327 408.53 41.966 409.397 42.625 410.289 C47.475 415.873 52.814 418.293 59.688 420.664 C60.658 421.025 61.629 421.386 62.629 421.758 C68.504 423.384 74.705 423.047 80.75 423.039 C81.414 423.039 82.078 423.038 82.762 423.037 C100.807 422.97 117.283 419.465 134.402 413.934 C141.837 411.678 141.837 411.678 145.688 411.664 C150.955 415.223 151.998 419.865 153.375 425.727 C153.771 427.323 154.171 428.918 154.574 430.512 C154.741 431.213 154.909 431.914 155.081 432.637 C155.688 434.664 155.688 434.664 156.757 436.767 C157.688 438.664 157.688 438.664 157.688 441.164 C156.3 444.633 153.856 445.943 150.688 447.664 C147.966 448.81 145.191 449.717 142.375 450.602 C141.59 450.855 140.806 451.108 139.997 451.368 C137.564 452.147 135.127 452.908 132.688 453.664 C131.939 453.898 131.19 454.132 130.418 454.373 C104.225 462.504 73.624 467.608 46.688 459.664 C46.34 459.562 46.34 459.562 44.579 459.046 C24.389 452.965 6.956 440.451 -3.312 421.664 C-7.136 413.575 -9.68 405.339 -10.978 396.5 C-11.104 395.638 -11.231 394.777 -11.361 393.89 C-12.733 383.703 -12.718 373.558 -12.669 363.297 C-12.67 361.136 -12.672 358.975 -12.675 356.814 C-12.68 351.011 -12.667 345.208 -12.65 339.405 C-12.634 333.302 -12.636 327.199 -12.635 321.096 C-12.631 310.862 -12.616 300.628 -12.594 290.393 C-12.565 277.281 -12.555 264.17 -12.55 251.058 C-12.546 239.741 -12.534 228.423 -12.52 217.106 C-12.516 213.487 -12.513 209.869 -12.51 206.25 C-12.505 200.557 -12.495 194.863 -12.48 189.17 C-12.476 187.089 -12.473 185.007 -12.472 182.925 C-12.46 163.614 -12.46 163.614 -11.373 154.942 C-11.263 150.787 -12.649 148.805 -15.312 145.664 C-21.09 142.819 -27.329 143.466 -33.605 143.574 C-36.033 143.595 -38.461 143.615 -40.889 143.635 C-44.707 143.678 -48.526 143.727 -52.344 143.781 C-56.036 143.829 -59.727 143.859 -63.418 143.887 C-63.991 143.898 -63.991 143.898 -66.893 143.953 C-67.955 143.959 -69.016 143.966 -70.11 143.973 C-70.577 143.979 -70.577 143.979 -72.942 144.011 C-75.312 143.664 -75.312 143.664 -77.095 142.309 C-80.375 137.877 -79.496 130.969 -79.5 125.664 C-79.512 124.883 -79.524 124.102 -79.537 123.297 C-79.549 118.716 -79.214 114.923 -77.312 110.664 C-70.508 106.581 -60.907 107.464 -53.254 107.348 C-52.11 107.327 -50.965 107.306 -49.786 107.285 C-46.149 107.22 -42.512 107.16 -38.875 107.102 C-36.402 107.058 -33.928 107.015 -31.455 106.971 C-25.408 106.864 -19.36 106.762 -13.312 106.664 C-13.311 105.41 -13.31 104.156 -13.308 102.863 C-13.292 91.048 -13.249 79.232 -13.18 67.417 C-13.146 61.342 -13.121 55.268 -13.117 49.193 C-13.113 43.331 -13.084 37.47 -13.039 31.609 C-13.026 29.372 -13.022 27.135 -13.026 24.898 C-13.031 21.765 -13.005 18.635 -12.972 15.503 C-12.981 14.577 -12.989 13.65 -12.998 12.696 C-12.918 8.217 -12.763 6.259 -9.985 2.59 C-6.494 0.074 -4.281 0.019 0 0 Z " fill="#023819" transform="translate(3413.3125,427.3359375)"/>
<path d="M0 0 C7.49 6.919 13.208 14.558 17.812 23.625 C18.011 23.98 18.011 23.98 19.016 25.777 C31.421 48.743 33.424 74.718 33.346 100.305 C33.353 102.785 33.362 105.265 33.372 107.744 C33.392 113.714 33.394 119.683 33.385 125.652 C33.379 130.502 33.38 135.352 33.387 140.201 C33.388 140.896 33.389 141.592 33.389 142.308 C33.391 143.72 33.393 145.133 33.395 146.546 C33.412 159.713 33.403 172.88 33.386 186.048 C33.371 198.091 33.386 210.133 33.415 222.176 C33.444 234.58 33.455 246.984 33.446 259.388 C33.445 260.789 33.444 262.19 33.443 263.591 C33.442 264.28 33.442 264.97 33.441 265.68 C33.439 270.532 33.449 275.384 33.463 280.236 C33.483 286.751 33.476 293.265 33.451 299.78 C33.446 302.173 33.45 304.566 33.462 306.959 C33.478 310.217 33.463 313.474 33.441 316.732 C33.453 317.685 33.464 318.638 33.477 319.62 C33.385 326.011 33.385 326.011 30.401 329.209 C27.939 330.556 26.536 331.146 23.773 331.234 C23.033 331.267 22.293 331.3 21.53 331.333 C20.757 331.347 19.984 331.361 19.188 331.375 C18.389 331.401 17.59 331.427 16.767 331.454 C15.176 331.502 13.585 331.542 11.993 331.574 C10.127 331.618 8.262 331.712 6.398 331.816 C2.032 332.003 -0.647 331.866 -4.688 330.062 C-7.672 327.153 -9.448 324.714 -10.188 320.625 C-10.108 318.971 -9.958 317.32 -9.764 315.676 C-8.889 306.403 -9.031 297.121 -9.026 287.815 C-9.022 285.725 -9.017 283.634 -9.011 281.543 C-8.998 275.889 -8.992 270.236 -8.987 264.582 C-8.984 261.038 -8.98 257.494 -8.976 253.95 C-8.962 242.827 -8.952 231.704 -8.949 220.581 C-8.944 207.806 -8.927 195.031 -8.898 182.256 C-8.876 172.339 -8.866 162.423 -8.865 152.506 C-8.864 146.603 -8.858 140.701 -8.84 134.798 C-8.823 129.233 -8.821 123.668 -8.83 118.103 C-8.831 116.081 -8.826 114.059 -8.816 112.038 C-8.766 101.234 -9.21 90.626 -10.487 79.891 C-10.543 79.407 -10.543 79.407 -10.825 76.954 C-13.312 57.98 -22.748 39.982 -37.426 27.586 C-45.752 21.674 -55.45 17.583 -65.188 14.625 C-66.114 14.326 -67.041 14.027 -67.996 13.719 C-87.868 8.36 -109.746 10.774 -129.188 16.625 C-129.859 16.823 -130.531 17.02 -131.223 17.224 C-160.918 26.197 -186.874 45.662 -202.188 72.625 C-202.608 73.304 -203.028 73.984 -203.461 74.684 C-205.763 78.432 -207.177 82.205 -208.465 86.379 C-209.142 88.483 -209.952 90.466 -210.812 92.5 C-214.928 103.671 -213.326 117.186 -213.313 128.914 C-213.315 131.067 -213.317 133.219 -213.319 135.372 C-213.324 139.989 -213.325 144.606 -213.326 149.224 C-213.327 156.522 -213.34 163.821 -213.355 171.119 C-213.358 172.353 -213.36 173.586 -213.363 174.857 C-213.368 177.378 -213.374 179.899 -213.379 182.42 C-213.414 199.4 -213.44 216.38 -213.438 233.361 C-213.436 244.833 -213.452 256.305 -213.489 267.778 C-213.507 273.845 -213.516 279.913 -213.504 285.98 C-213.493 291.678 -213.504 297.375 -213.534 303.072 C-213.541 305.165 -213.539 307.258 -213.528 309.351 C-213.514 312.203 -213.53 315.052 -213.555 317.904 C-213.549 318.32 -213.549 318.32 -213.521 320.428 C-213.587 324.412 -213.784 326.205 -216.595 329.129 C-219.051 330.546 -220.59 331.208 -223.375 331.488 C-224.15 331.571 -224.926 331.654 -225.725 331.739 C-226.538 331.805 -227.35 331.87 -228.188 331.938 C-228.606 331.976 -228.606 331.976 -230.726 332.173 C-247.357 333.54 -247.357 333.54 -253.188 330.625 C-253.188 329.965 -253.188 329.305 -253.188 328.625 C-254.178 328.295 -255.168 327.965 -256.188 327.625 C-259.999 320.002 -258.332 308.108 -258.321 299.77 C-258.323 298.411 -258.325 297.052 -258.328 295.693 C-258.334 291.992 -258.334 288.291 -258.333 284.59 C-258.333 280.586 -258.338 276.582 -258.343 272.578 C-258.351 264.749 -258.354 256.92 -258.355 249.091 C-258.355 242.729 -258.357 236.367 -258.36 230.004 C-258.369 211.955 -258.374 193.906 -258.373 175.856 C-258.373 175.37 -258.373 175.37 -258.373 172.913 C-258.373 171.94 -258.373 170.967 -258.373 169.965 C-258.372 154.179 -258.382 138.393 -258.396 122.606 C-258.41 106.386 -258.417 90.165 -258.416 73.944 C-258.416 64.842 -258.419 55.739 -258.43 46.637 C-258.439 38.894 -258.441 31.151 -258.434 23.408 C-258.431 19.458 -258.431 15.508 -258.439 11.558 C-258.447 7.942 -258.446 4.327 -258.437 0.711 C-258.435 -1.216 -258.442 -3.144 -258.45 -5.072 C-258.446 -6.219 -258.441 -7.366 -258.436 -8.548 C-258.437 -9.535 -258.437 -10.523 -258.437 -11.54 C-258.153 -14.764 -257.425 -17.387 -256.188 -20.375 C-250.999 -23.446 -244.677 -22.954 -238.812 -23.188 C-237.701 -23.251 -236.59 -23.315 -235.445 -23.381 C-229.2 -23.645 -224.597 -23.663 -219.188 -20.375 C-215.944 -17.035 -215.799 -14.432 -215.746 -9.863 C-215.721 -8.559 -215.696 -7.254 -215.67 -5.91 C-215.662 -5.221 -215.655 -4.531 -215.648 -3.821 C-215.609 -0.22 -215.523 3.38 -215.438 6.98 C-215.429 7.343 -215.429 7.343 -215.387 9.179 C-215.121 19.691 -214.17 30.159 -213.188 40.625 C-209.674 39.454 -209.421 38.805 -207.562 35.75 C-203.87 29.998 -199.608 24.829 -195.188 19.625 C-194.499 18.8 -193.811 17.975 -193.102 17.125 C-169.571 -10.167 -134.934 -27.427 -99.047 -30.215 C-63.963 -32.18 -26.831 -23.226 0 0 Z " fill="#023819" transform="translate(1888.1875,557.375)"/>
<path d="M0 0 C0.671 0.001 1.342 0.003 2.033 0.005 C13.173 0.049 23.881 0.827 34.75 3.312 C36.031 3.603 37.313 3.893 38.633 4.191 C47.587 6.425 56.261 9.432 64.907 12.634 C66.462 13.206 68.025 13.758 69.59 14.305 C80.921 18.455 90.577 25.625 99.75 33.312 C100.598 33.974 101.446 34.635 102.32 35.316 C110.585 42.107 117.875 51.841 122.75 61.312 C123.223 62.208 123.696 63.104 124.184 64.027 C136.022 86.966 138.125 110.215 138.121 135.642 C138.125 138.668 138.162 141.692 138.199 144.717 C138.205 146.661 138.209 148.606 138.211 150.551 C138.225 151.445 138.24 152.338 138.254 153.259 C138.248 154.098 138.242 154.937 138.236 155.802 C138.239 156.531 138.242 157.26 138.244 158.01 C137.491 161.516 136.062 163.588 133.75 166.312 C130.572 167.483 130.572 167.483 126.879 168.059 C126.548 168.114 126.548 168.114 124.872 168.393 C122.835 168.726 120.794 169.022 118.75 169.312 C117.583 169.495 116.417 169.677 115.215 169.865 C111.711 170.399 108.203 170.886 104.691 171.363 C102.715 171.638 100.738 171.912 98.762 172.187 C96.694 172.473 94.626 172.758 92.558 173.042 C86.06 173.934 79.563 174.84 73.067 175.746 C71.627 175.946 70.187 176.147 68.747 176.348 C57.257 177.948 45.78 179.622 34.312 181.375 C18.496 183.787 2.658 186.035 -13.188 188.25 C-15.614 188.59 -18.04 188.93 -20.466 189.271 C-31.32 190.791 -42.174 192.305 -53.032 193.791 C-57.572 194.415 -62.112 195.046 -66.65 195.678 C-68.78 195.973 -70.91 196.265 -73.041 196.552 C-75.979 196.949 -78.915 197.358 -81.852 197.77 C-82.706 197.882 -83.561 197.994 -84.441 198.11 C-95.653 199.716 -95.653 199.716 -99.25 203.312 C-99.369 204.812 -99.42 206.318 -99.443 207.822 C-99.459 208.785 -99.475 209.748 -99.492 210.74 C-99.536 215.223 -99.577 219.706 -99.6 224.189 C-99.616 226.533 -99.644 228.876 -99.682 231.22 C-100.077 255.328 -97.02 275.899 -79.648 294.012 C-51.533 320.983 -14.622 326.983 22.98 326.586 C53.131 325.829 81.552 317.581 107.379 302.152 C108 301.785 108.622 301.418 109.262 301.04 C110.478 300.321 111.688 299.592 112.892 298.852 C116.291 296.844 118.788 295.62 122.75 296.312 C130.592 303.976 137.255 314.346 141.75 324.312 C138.265 328.915 135.229 331.535 130.062 334.312 C128.924 334.931 127.786 335.55 126.613 336.188 C126.004 336.516 125.394 336.845 124.766 337.184 C122.454 338.478 120.206 339.862 117.949 341.25 C72.008 368.962 13.944 374.657 -37.568 362.241 C-71.663 353.435 -102.773 338.109 -124.25 309.312 C-124.575 308.932 -124.575 308.932 -126.223 307.004 C-128.575 303.882 -130.212 300.605 -131.812 297.062 C-132.118 296.396 -132.423 295.73 -132.737 295.044 C-134.916 290.219 -136.748 285.391 -138.25 280.312 C-138.504 279.597 -138.758 278.882 -139.02 278.145 C-144.953 260.695 -143.55 241.42 -143.519 223.24 C-143.514 219.328 -143.518 215.415 -143.521 211.503 C-143.525 204.94 -143.52 198.376 -143.511 191.813 C-143.5 184.267 -143.503 176.722 -143.514 169.177 C-143.524 162.651 -143.525 156.124 -143.52 149.598 C-143.516 145.721 -143.516 141.844 -143.523 137.968 C-143.581 99.043 -143.581 99.043 -138.25 85.312 C-138.075 84.779 -138.075 84.779 -137.191 82.082 C-133.035 69.585 -127.259 59.86 -118.25 50.312 C-117.121 48.983 -115.996 47.649 -114.875 46.312 C-87.16 14.701 -41.005 -0.176 0 0 Z M-70.25 62.312 C-71.088 62.925 -71.926 63.537 -72.789 64.168 C-77.485 67.694 -77.485 67.694 -79.25 69.312 C-79.25 69.972 -79.25 70.632 -79.25 71.312 C-80.24 71.643 -81.23 71.972 -82.25 72.312 C-95.034 86.655 -100.782 102.554 -100.578 121.699 C-100.576 122.923 -100.574 124.146 -100.572 125.407 C-100.566 127.968 -100.552 130.528 -100.531 133.089 C-100.5 137.027 -100.49 140.966 -100.484 144.904 C-100.475 147.398 -100.465 149.893 -100.453 152.387 C-100.449 153.569 -100.445 154.751 -100.44 155.969 C-100.431 157.051 -100.421 158.134 -100.411 159.249 C-100.404 160.205 -100.397 161.162 -100.39 162.147 C-100.25 164.312 -100.25 164.312 -99.25 165.312 C-89.716 165.121 -80.163 163.419 -70.73 162.09 C-69.127 161.866 -67.523 161.643 -65.919 161.42 C-61.643 160.824 -57.367 160.224 -53.092 159.623 C-50.424 159.248 -47.756 158.875 -45.088 158.501 C-17.491 154.642 10.095 150.705 37.662 146.639 C43.779 145.739 49.899 144.866 56.023 144.014 C59.903 143.475 63.782 142.927 67.66 142.38 C69.442 142.13 71.225 141.885 73.008 141.644 C75.416 141.318 77.821 140.979 80.227 140.637 C80.923 140.546 81.619 140.456 82.336 140.363 C86.432 139.764 89.419 138.793 92.75 136.312 C94.996 132.944 95.007 131.775 95.016 127.832 C95.018 126.75 95.021 125.668 95.023 124.553 C95.016 123.422 95.008 122.29 95 121.125 C95.008 120.013 95.015 118.901 95.023 117.756 C95.009 111.569 94.56 106.23 92.75 100.312 C92.55 99.556 92.35 98.799 92.145 98.02 C85.732 77.146 70.935 62.114 52.07 51.996 C47.714 49.787 43.37 47.894 38.75 46.312 C38.023 46.05 37.296 45.787 36.547 45.516 C1.35 33.783 -40.464 40.23 -70.25 62.312 Z " fill="#023819" transform="translate(2151.25,527.6875)"/>
<path d="M0 0 C0.737 -0.007 1.473 -0.014 2.232 -0.021 C29.862 -0.226 55.854 2.216 81.242 14.203 C82.163 14.618 83.083 15.033 84.031 15.461 C108.135 26.831 127.573 43.393 141.242 66.203 C141.51 66.632 141.51 66.632 142.867 68.801 C144.251 71.218 145.258 73.601 146.242 76.203 C146.561 76.935 146.879 77.668 147.207 78.422 C149.731 84.341 151.301 90.223 152.629 96.516 C153.242 99.203 153.242 99.203 154.242 101.203 C155.326 110.087 155.387 119.021 155.372 127.957 C155.372 128.611 155.372 128.611 155.377 131.919 C155.381 135.465 155.38 139.01 155.377 142.555 C155.374 146.292 155.376 150.028 155.378 153.764 C155.38 160.034 155.377 166.305 155.373 172.575 C155.367 179.792 155.369 187.009 155.374 194.226 C155.379 200.457 155.38 206.689 155.377 212.92 C155.375 216.627 155.375 220.333 155.378 224.039 C155.382 228.176 155.377 232.313 155.372 236.449 C155.374 237.654 155.376 238.858 155.378 240.099 C155.326 261.089 155.326 261.089 152.242 268.203 C151.909 269.946 151.619 271.697 151.367 273.453 C150.417 278.898 148.705 283.285 146.242 288.203 C145.989 288.745 145.989 288.745 144.707 291.488 C138.926 303.589 131.419 313.456 122.242 323.203 C121.967 323.511 121.967 323.511 120.574 325.066 C111.466 334.849 98.77 341.628 87.242 348.203 C86.767 348.476 86.767 348.476 84.363 349.855 C48.476 369.101 0.935 371.743 -37.758 360.203 C-49.216 356.546 -60.253 352.081 -70.758 346.203 C-71.11 346.007 -71.11 346.007 -72.895 345.016 C-83.803 338.874 -92.936 332.064 -101.758 323.203 C-102.418 322.591 -103.078 321.979 -103.758 321.348 C-112.894 312.782 -119.673 302.579 -124.758 291.203 C-125.124 290.446 -125.49 289.69 -125.867 288.91 C-136.014 267.485 -136.215 244.995 -136.128 221.808 C-136.116 218.017 -136.121 214.225 -136.123 210.434 C-136.123 204.083 -136.113 197.731 -136.094 191.38 C-136.073 184.059 -136.069 176.738 -136.076 169.416 C-136.081 162.33 -136.076 155.244 -136.064 148.157 C-136.06 145.159 -136.059 142.16 -136.061 139.162 C-136.063 134.977 -136.049 130.792 -136.032 126.607 C-136.035 125.377 -136.037 124.148 -136.04 122.881 C-135.999 116.323 -135.426 110.547 -133.758 104.203 C-133.449 102.268 -133.155 100.331 -132.883 98.391 C-128.428 71.63 -111.289 47.124 -89.758 31.203 C-86.172 28.723 -82.503 26.434 -78.758 24.203 C-77.665 23.543 -76.572 22.883 -75.445 22.203 C-56.281 10.81 -35.712 4.513 -13.758 1.203 C-12.854 1.031 -11.949 0.859 -11.018 0.682 C-7.333 0.141 -3.716 0.024 0 0 Z M-17.758 42.203 C-18.408 42.369 -19.058 42.536 -19.727 42.707 C-45.3 49.438 -70.606 64.442 -84.758 87.203 C-92.392 100.361 -94.064 114.538 -94.032 129.536 C-94.038 130.811 -94.043 132.086 -94.048 133.4 C-94.061 136.861 -94.062 140.321 -94.059 143.782 C-94.058 146.689 -94.063 149.596 -94.068 152.504 C-94.079 159.372 -94.08 166.24 -94.073 173.108 C-94.067 180.153 -94.08 187.198 -94.101 194.242 C-94.119 200.328 -94.125 206.413 -94.121 212.498 C-94.12 216.117 -94.122 219.735 -94.136 223.353 C-94.29 266.773 -94.29 266.773 -80.758 283.203 C-79.86 284.472 -78.964 285.743 -78.07 287.016 C-61.238 309.197 -34.466 321.663 -7.289 325.429 C12.463 327.812 33.658 326.729 52.242 319.203 C53.186 318.856 54.129 318.51 55.102 318.152 C69.125 312.754 80.736 304.849 91.242 294.203 C92.004 293.44 92.766 292.677 93.551 291.891 C107.236 277.403 113.719 257.177 113.646 237.6 C113.653 236.285 113.66 234.97 113.667 233.614 C113.685 230.038 113.684 226.461 113.678 222.885 C113.675 219.883 113.681 216.882 113.687 213.88 C113.701 206.79 113.7 199.7 113.688 192.61 C113.677 185.331 113.691 178.053 113.718 170.775 C113.74 164.493 113.746 158.212 113.741 151.931 C113.737 148.193 113.739 144.456 113.757 140.719 C113.772 137.2 113.768 133.681 113.749 130.162 C113.744 128.281 113.758 126.399 113.773 124.517 C113.602 104.367 104.807 84.31 90.961 69.797 C67.499 47.413 35.737 38.638 4.047 38.988 C-3.498 39.186 -10.445 40.316 -17.758 42.203 Z " fill="#023819" transform="translate(2883.7578125,527.796875)"/>
<path d="M0 0 C1.005 0.117 2.01 0.235 3.045 0.356 C3.519 0.419 3.519 0.419 5.918 0.738 C6.765 0.848 7.612 0.958 8.485 1.072 C11.187 1.787 12.752 2.816 14.812 4.688 C17.133 14.698 14.103 32.744 8.707 41.477 C5.578 44.762 2.273 45.016 -2 45.125 C-5.637 44.978 -8.981 44.601 -12.5 43.688 C-28.405 39.654 -47.276 43.677 -61.414 51.465 C-68.251 55.731 -68.251 55.731 -70.863 58.398 C-72.188 59.688 -72.188 59.688 -74.188 59.688 C-74.188 60.347 -74.188 61.008 -74.188 61.688 C-75.301 62.836 -76.422 63.977 -77.57 65.09 C-87.851 75.246 -94.548 86.686 -100.347 99.809 C-101.145 101.593 -101.982 103.359 -102.82 105.125 C-110.447 121.682 -111.775 137.923 -111.67 155.955 C-111.672 158.128 -111.676 160.302 -111.682 162.475 C-111.69 167.116 -111.687 171.756 -111.673 176.397 C-111.653 183.734 -111.663 191.07 -111.678 198.407 C-111.704 213.959 -111.698 229.511 -111.688 245.062 C-111.677 261.904 -111.671 278.745 -111.705 295.587 C-111.718 302.883 -111.712 310.18 -111.691 317.476 C-111.682 322.001 -111.69 326.525 -111.702 331.05 C-111.704 333.151 -111.699 335.252 -111.687 337.353 C-111.672 340.215 -111.68 343.076 -111.695 345.938 C-111.69 346.356 -111.69 346.356 -111.664 348.471 C-111.706 352.049 -111.871 354.243 -113.976 357.196 C-117.319 359.451 -120.72 359.368 -124.625 359.438 C-125.423 359.464 -126.222 359.49 -127.044 359.516 C-128.661 359.565 -130.278 359.605 -131.896 359.636 C-133.949 359.682 -136 359.777 -138.051 359.879 C-147.167 360.205 -147.167 360.205 -150.812 357.938 C-156.003 353.02 -156.003 353.02 -156.558 349.009 C-156.556 347.977 -156.554 346.944 -156.552 345.881 C-156.557 344.688 -156.562 343.494 -156.567 342.265 C-156.557 340.952 -156.547 339.64 -156.537 338.288 C-156.537 336.881 -156.539 335.473 -156.541 334.066 C-156.544 330.195 -156.529 326.324 -156.51 322.453 C-156.493 318.28 -156.493 314.106 -156.491 309.933 C-156.484 301.756 -156.461 293.579 -156.432 285.402 C-156.408 278.758 -156.39 272.114 -156.376 265.47 C-156.374 264.525 -156.372 263.58 -156.37 262.607 C-156.365 260.688 -156.361 258.769 -156.357 256.85 C-156.318 238.845 -156.26 220.84 -156.195 202.834 C-156.137 186.351 -156.101 169.867 -156.077 153.384 C-156.051 136.47 -156.011 119.556 -155.955 102.641 C-155.923 93.141 -155.898 83.641 -155.887 74.14 C-155.878 66.053 -155.855 57.966 -155.814 49.88 C-155.793 45.751 -155.779 41.624 -155.782 37.496 C-155.785 33.719 -155.769 29.943 -155.739 26.167 C-155.727 24.148 -155.735 22.129 -155.744 20.11 C-155.731 18.917 -155.717 17.724 -155.704 16.494 C-155.701 15.462 -155.697 14.43 -155.694 13.366 C-155.055 9.989 -153.819 8.825 -151.188 6.688 C-145.02 3.604 -134.984 4.032 -128.188 4.688 C-123.313 6.371 -121.478 8.143 -119.188 12.688 C-118.695 15.404 -118.695 15.404 -118.527 18.336 C-118.457 19.416 -118.387 20.497 -118.314 21.61 C-118.252 22.75 -118.189 23.889 -118.125 25.062 C-117.973 27.419 -117.818 29.776 -117.66 32.133 C-117.584 33.266 -117.508 34.4 -117.43 35.567 C-117.132 39.395 -116.636 43.142 -116.062 46.938 C-115.037 53.899 -114.992 60.656 -115.188 67.688 C-114.198 67.688 -113.207 67.688 -112.188 67.688 C-111.94 67.151 -111.693 66.615 -111.438 66.062 C-109.416 62.222 -107.022 58.714 -104.285 55.348 C-102.176 52.673 -100.341 49.927 -98.5 47.062 C-89.31 33.21 -78.35 20.588 -64.188 11.688 C-63.115 11.007 -62.043 10.326 -60.938 9.625 C-40.955 -1.181 -22.3 -2.697 0 0 Z " fill="#023819" transform="translate(3290.1875,529.3125)"/>
<path d="M0 0 C1.65 0.99 3.3 1.98 5 3 C5.005 3.463 5.005 3.463 5.031 5.805 C5.101 12.096 5.172 18.388 5.243 24.679 C5.253 25.577 5.264 26.475 5.274 27.4 C5.295 29.284 5.317 31.167 5.338 33.051 C5.405 38.942 5.47 44.833 5.533 50.724 C5.745 70.264 5.976 89.803 6.345 109.341 C6.441 114.45 6.529 119.559 6.617 124.668 C6.702 129.473 6.801 134.277 6.909 139.082 C6.973 142.056 7.024 145.031 7.072 148.006 C7.108 150.016 7.16 152.024 7.213 154.033 C7.413 168.159 7.413 168.159 2.535 173.649 C-2.463 178.397 -8.803 181.612 -14.75 185 C-15.26 185.295 -15.26 185.295 -17.844 186.789 C-23.633 190.125 -29.47 193.363 -35.343 196.548 C-39.676 198.916 -43.964 201.36 -48.25 203.812 C-49.157 204.33 -50.064 204.848 -50.998 205.381 C-56.398 208.475 -61.748 211.636 -67.062 214.875 C-72.258 218.04 -77.561 220.82 -83.035 223.473 C-87.464 225.754 -91.633 228.417 -95.852 231.062 C-99.555 233.342 -103.342 235.412 -107.172 237.469 C-123.048 246.065 -138.577 255.382 -154.086 264.617 C-155.06 265.196 -156.034 265.776 -157.037 266.372 C-158.866 267.461 -160.693 268.554 -162.518 269.649 C-167.516 272.626 -172.576 275.344 -177.798 277.907 C-180.388 279.193 -182.887 280.591 -185.375 282.062 C-186.371 282.65 -187.368 283.238 -188.395 283.844 C-191.21 285.523 -194.017 287.214 -196.824 288.906 C-198.57 289.958 -200.316 291.011 -202.062 292.062 C-202.927 292.584 -203.792 293.105 -204.682 293.642 C-210.119 296.908 -215.588 300.053 -221.199 303.012 C-223 304 -223 304 -224 305 C-226 305.041 -228 305.043 -230 305 C-231.421 302.158 -231.133 299.76 -231.14 296.581 C-231.143 295.914 -231.146 295.248 -231.149 294.561 C-231.158 292.317 -231.16 290.073 -231.161 287.829 C-231.166 286.225 -231.171 284.62 -231.176 283.015 C-231.189 278.647 -231.196 274.279 -231.2 269.911 C-231.203 267.183 -231.207 264.454 -231.212 261.725 C-231.225 253.188 -231.235 244.651 -231.239 236.114 C-231.243 226.258 -231.261 216.403 -231.29 206.547 C-231.312 198.931 -231.322 191.315 -231.323 183.699 C-231.324 179.149 -231.33 174.6 -231.348 170.051 C-231.364 165.769 -231.366 161.487 -231.358 157.205 C-231.357 155.636 -231.361 154.066 -231.371 152.497 C-231.384 150.349 -231.378 148.202 -231.367 146.054 C-231.369 144.854 -231.37 143.654 -231.372 142.417 C-230.664 135.918 -228.122 131.161 -223 127 C-221.412 126.087 -219.805 125.206 -218.188 124.348 C-211.387 120.689 -204.695 116.847 -198 113 C-188.817 107.723 -179.585 102.554 -170.264 97.523 C-163.747 93.991 -157.328 90.318 -150.938 86.562 C-142.23 81.462 -133.5 76.403 -124.75 71.375 C-116.806 66.807 -108.906 62.176 -101.062 57.438 C-92.761 52.426 -84.426 47.652 -75.688 43.438 C-68.937 40.092 -62.513 36.231 -56.044 32.375 C-48.709 28.003 -41.337 23.7 -33.938 19.438 C-33.397 19.126 -33.397 19.126 -30.662 17.551 C-20.455 11.678 -10.232 5.831 0 0 Z " fill="#023819" transform="translate(1431,547)"/>
<path d="M0 0 C2.552 -0.002 5.103 -0.02 7.654 -0.039 C18.074 -0.075 28.081 0.609 38.386 2.185 C39.2 2.3 40.014 2.416 40.853 2.534 C77.234 7.824 109.812 20.518 136.386 46.185 C137.2 46.947 138.013 47.709 138.851 48.494 C148.79 58.025 156.556 69.73 162.386 82.185 C162.704 82.838 163.021 83.49 163.347 84.162 C168.031 94.127 169.856 104.348 171.386 115.185 C171.566 116.12 171.745 117.054 171.929 118.017 C175.41 142.144 170.039 167.038 156.386 187.185 C149.075 196.727 141.054 206.174 130.855 212.666 C129.386 214.185 129.386 214.185 128.855 216.615 C129.614 220.286 131.307 221.077 134.386 223.123 C135.398 223.816 136.41 224.51 137.453 225.224 C138.421 225.871 139.389 226.519 140.386 227.185 C145.524 230.776 150.241 234.736 154.886 238.935 C155.428 239.42 155.969 239.904 156.527 240.403 C157.854 241.621 159.125 242.899 160.386 244.185 C160.386 244.845 160.386 245.505 160.386 246.185 C161.376 246.515 162.366 246.845 163.386 247.185 C165.088 249.383 166.626 251.549 168.136 253.873 C168.577 254.547 169.019 255.221 169.473 255.916 C175.902 265.919 180.725 275.952 183.562 287.517 C183.834 288.398 184.106 289.278 184.386 290.185 C185.046 290.515 185.706 290.845 186.386 291.185 C187.844 285.243 187.025 279.63 186.449 273.623 C184.735 253.45 185.03 233.373 186.261 213.185 C186.301 212.514 186.34 211.843 186.38 211.152 C186.494 209.246 186.624 207.34 186.754 205.435 C186.827 204.347 186.9 203.259 186.976 202.138 C187.387 199.182 188.231 196.92 189.386 194.185 C189.766 191.405 190.076 188.664 190.324 185.873 C192.554 163.626 192.554 163.626 196.386 156.185 C196.935 154.135 197.431 152.071 197.886 149.998 C198.144 148.847 198.402 147.696 198.668 146.51 C199.095 144.535 199.514 142.559 199.918 140.58 C200.747 136.565 201.757 132.974 203.488 129.228 C204.639 126.61 205.59 123.933 206.574 121.248 C209.622 113.27 213.443 105.748 217.386 98.185 C217.639 97.695 217.639 97.695 218.918 95.217 C225.799 82.219 234.108 70.551 243.386 59.185 C243.675 58.824 243.675 58.824 245.136 56.998 C248.201 53.266 251.587 50.114 255.269 46.994 C256.684 45.785 258.075 44.547 259.441 43.283 C269.781 33.72 281.013 27.027 293.644 21.031 C295.83 19.97 297.944 18.791 300.074 17.623 C315.787 9.858 333.271 6.297 350.386 3.185 C351.083 3.058 351.78 2.93 352.497 2.799 C365.771 0.426 379.123 -0.023 392.574 -0.002 C392.937 -0.002 392.937 -0.002 394.775 -0 C416.332 0.048 437.761 2.605 458.386 9.185 C459.076 9.405 459.766 9.625 460.476 9.852 C484.958 17.77 504.86 28.325 523.386 46.185 C524.041 46.789 524.696 47.392 525.371 48.013 C538 59.947 546.455 75.47 553.386 91.185 C553.903 92.336 554.42 93.488 554.953 94.674 C558.289 102.845 561.434 112.28 560.386 121.185 C557.719 123.852 556.349 123.482 552.618 123.58 C551.404 123.617 550.191 123.653 548.941 123.691 C547.604 123.722 546.267 123.752 544.929 123.783 C543.548 123.822 542.166 123.861 540.784 123.902 C537.125 124.007 533.465 124.1 529.805 124.191 C524.031 124.337 518.256 124.501 512.482 124.662 C510.369 124.72 508.255 124.778 506.142 124.835 C497.512 125.072 488.892 125.412 480.27 125.853 C472.808 126.229 465.358 126.437 457.886 126.498 C456.64 126.527 455.393 126.556 454.109 126.586 C452.912 126.594 451.714 126.602 450.48 126.611 C449.953 126.618 449.953 126.618 447.283 126.655 C442.168 125.825 439.267 122.254 436.136 118.373 C426.044 106.703 410.735 98.287 395.257 97.01 C376.561 95.906 361.743 100.121 346.804 111.478 C344.386 113.185 344.386 113.185 341.386 114.185 C341.056 115.175 340.726 116.165 340.386 117.185 C339.726 117.185 339.066 117.185 338.386 117.185 C338.256 117.466 338.256 117.466 337.597 118.888 C336.263 121.42 334.698 123.623 333.011 125.935 C329.995 130.208 327.49 134.403 325.386 139.185 C325.049 139.932 324.711 140.678 324.363 141.447 C319.701 152.33 317.945 163.416 317.386 175.185 C322.881 173.11 327.527 170.257 332.453 167.076 C347.072 157.654 362.301 150.765 379.386 147.185 C379.735 147.111 379.735 147.111 381.502 146.732 C412.624 140.359 443.932 143.911 473.386 155.185 C474.114 155.462 474.842 155.74 475.593 156.025 C502.737 166.585 526.773 186.414 543.386 210.185 C543.62 210.516 543.62 210.516 544.804 212.188 C548.673 217.793 551.71 223.578 554.574 229.748 C554.999 230.642 555.423 231.536 555.861 232.457 C560.54 242.403 563.952 252.469 566.386 263.185 C566.569 263.979 566.751 264.772 566.939 265.589 C571.792 287.778 571.215 310.587 571.386 333.185 C575.634 335.281 578.792 335.31 583.48 334.951 C584.176 334.899 584.872 334.847 585.589 334.793 C593.492 334.163 601.363 333.217 609.232 332.258 C613.896 331.691 618.563 331.143 623.23 330.595 C623.719 330.538 623.719 330.538 626.19 330.248 C636.859 329.002 647.537 327.836 658.22 326.708 C660.312 326.487 662.405 326.263 664.497 326.037 C667.438 325.72 670.381 325.411 673.324 325.103 C674.181 325.01 675.037 324.916 675.92 324.82 C692.793 323.095 692.793 323.095 697.332 326.201 C699.711 329.657 701.525 333.126 703.261 336.935 C710.198 351.396 719.659 361.68 735.035 367.123 C751.898 372.389 772.356 372.436 788.232 364.268 C802.426 356.401 810.649 344.384 815.386 329.185 C815.536 328.795 815.536 328.795 816.293 326.822 C822.039 310.141 818.812 290.696 811.824 274.998 C804.546 261.429 792.71 251.775 778.129 246.963 C761.67 242.297 744.903 243.068 729.511 250.873 C721.388 255.715 715.036 262.289 708.98 269.459 C705.609 273.111 701.47 275.988 696.376 276.314 C695.603 276.316 694.831 276.317 694.035 276.319 C693.146 276.323 692.258 276.328 691.342 276.332 C690.856 276.332 690.856 276.332 688.395 276.331 C687.882 276.332 687.882 276.332 685.285 276.341 C681.884 276.35 678.483 276.352 675.082 276.353 C672.722 276.356 670.361 276.36 668.001 276.363 C663.05 276.369 658.098 276.371 653.147 276.371 C646.799 276.371 640.451 276.384 634.104 276.401 C629.228 276.412 624.351 276.415 619.475 276.414 C617.135 276.415 614.795 276.42 612.454 276.427 C609.182 276.437 605.909 276.434 602.637 276.428 C601.668 276.434 600.7 276.439 599.702 276.445 C591.231 276.406 591.231 276.406 587.386 274.185 C585.855 271.122 586.471 268.018 586.699 264.685 C586.747 263.958 586.795 263.232 586.844 262.483 C587.186 257.789 587.819 253.291 588.859 248.697 C589.474 245.767 589.868 242.84 590.261 239.873 C591.081 233.909 592.161 228.029 593.324 222.123 C594.902 214.068 596.189 206.01 597.31 197.88 C598.117 192.031 598.988 186.198 599.949 180.373 C600.064 179.662 600.179 178.952 600.297 178.22 C600.869 174.801 601.546 171.455 602.418 168.099 C603.335 164.542 603.886 161.025 604.324 157.373 C605.095 151.316 605.947 145.281 606.886 139.248 C607.005 138.468 607.124 137.687 607.246 136.883 C607.798 133.37 608.435 130.002 609.355 126.56 C611.182 119.554 611.754 112.265 612.636 105.091 C612.882 103.11 613.134 101.13 613.386 99.15 C613.531 97.981 613.675 96.812 613.824 95.607 C614.413 92.024 615.355 88.663 616.386 85.185 C616.761 82.9 617.095 80.608 617.386 78.31 C617.912 74.406 618.457 70.576 619.386 66.748 C620.29 62.936 620.826 59.133 621.324 55.248 C622.35 47.245 623.594 39.295 625.004 31.351 C625.254 29.937 625.497 28.522 625.734 27.105 C626.056 25.191 626.408 23.282 626.761 21.373 C626.955 20.294 627.148 19.215 627.347 18.103 C628.713 14.267 630.096 12.603 633.386 10.185 C640.007 8.658 647.132 9.052 653.882 9.083 C654.446 9.083 654.446 9.083 657.3 9.086 C661.063 9.091 664.826 9.104 668.589 9.116 C671.293 9.122 673.997 9.126 676.701 9.13 C684.034 9.144 691.366 9.165 698.698 9.187 C703.277 9.201 707.856 9.214 712.435 9.226 C725.118 9.26 737.802 9.296 750.485 9.339 C750.89 9.34 750.89 9.34 752.94 9.347 C753.346 9.349 753.346 9.349 755.401 9.356 C757.047 9.361 758.693 9.367 760.338 9.372 C761.155 9.375 761.971 9.378 762.812 9.381 C776.062 9.425 789.312 9.456 802.562 9.482 C816.172 9.508 829.782 9.545 843.392 9.593 C851.031 9.62 858.67 9.642 866.31 9.652 C872.808 9.661 879.306 9.679 885.805 9.711 C889.121 9.727 892.437 9.737 895.753 9.737 C899.344 9.737 902.935 9.756 906.526 9.78 C907.052 9.778 907.052 9.778 909.715 9.767 C910.195 9.772 910.195 9.772 912.625 9.798 C913.454 9.8 914.283 9.803 915.137 9.805 C917.928 10.277 919.322 11.28 921.386 13.185 C921.887 15.17 921.887 15.17 921.888 17.474 C921.898 18.349 921.907 19.224 921.917 20.125 C921.908 21.082 921.898 22.039 921.888 23.025 C921.894 24.035 921.899 25.045 921.905 26.086 C921.917 29.432 921.901 32.777 921.883 36.123 C921.883 38.443 921.884 40.763 921.887 43.083 C921.888 47.949 921.876 52.815 921.853 57.68 C921.825 63.925 921.827 70.17 921.84 76.415 C921.847 81.207 921.839 85.999 921.827 90.791 C921.822 93.094 921.822 95.396 921.826 97.699 C921.829 100.915 921.812 104.13 921.791 107.345 C921.795 108.302 921.8 109.259 921.804 110.245 C921.794 111.12 921.784 111.995 921.774 112.896 C921.772 113.657 921.769 114.417 921.767 115.2 C921.283 117.726 920.361 118.589 918.386 120.185 C915.396 121.681 912.683 121.31 909.346 121.31 C908.613 121.311 907.88 121.313 907.124 121.314 C904.655 121.318 902.185 121.314 899.715 121.311 C897.95 121.313 896.184 121.315 894.419 121.317 C890.61 121.321 886.801 121.323 882.993 121.323 C876.972 121.325 870.951 121.337 864.93 121.353 C864.422 121.354 864.422 121.354 861.853 121.361 C859.777 121.366 857.7 121.371 855.624 121.377 C841.602 121.412 827.58 121.438 813.558 121.436 C804.106 121.434 794.654 121.45 785.202 121.486 C780.197 121.505 775.193 121.514 770.189 121.502 C765.482 121.491 760.775 121.502 756.068 121.532 C754.34 121.538 752.611 121.536 750.883 121.525 C748.524 121.512 746.167 121.528 743.808 121.553 C743.123 121.541 742.439 121.53 741.734 121.518 C737.994 121.594 736.454 122.131 733.501 124.502 C730.948 127.742 730.066 130.79 729.261 134.748 C728.939 136.178 728.616 137.607 728.293 139.037 C728.217 139.388 728.217 139.388 727.832 141.167 C727.206 144.002 726.484 146.811 725.761 149.623 C724.14 156.11 722.657 162.62 721.386 169.185 C724.405 170.695 726.256 169.521 729.449 168.56 C730.711 168.188 731.973 167.815 733.273 167.431 C736.029 166.601 738.78 165.756 741.531 164.908 C756.812 160.24 772.175 157.108 788.207 156.947 C788.613 156.942 788.613 156.942 790.67 156.917 C835.786 156.481 874.31 166.318 907.386 198.185 C908.103 198.839 908.82 199.492 909.558 200.166 C918.586 208.634 925.266 219.518 931.386 230.185 C931.727 230.722 931.727 230.722 933.449 233.435 C936.037 237.962 937.55 242.968 939.238 247.881 C939.939 249.898 940.675 251.903 941.472 253.885 C951.948 280.252 951.401 314.394 946.949 341.873 C946.827 342.639 946.705 343.406 946.579 344.196 C945.945 347.888 945.107 350.884 943.386 354.185 C942.766 356.641 942.189 359.09 941.636 361.56 C939.745 369.524 936.896 376.781 933.386 384.185 C933.138 384.711 933.138 384.711 931.879 387.373 C926.935 397.519 921.2 406.67 914.34 415.619 C912.961 417.43 911.649 419.292 910.386 421.185 C909.726 421.185 909.066 421.185 908.386 421.185 C908.135 421.76 907.884 422.335 907.625 422.927 C902.705 431.898 892.572 438.308 884.386 444.185 C883.34 444.938 882.293 445.691 881.215 446.467 C861.166 460.088 837.836 467.805 814.386 473.185 C813.216 473.462 812.046 473.74 810.84 474.025 C794.565 477.726 778.805 478.533 762.171 478.501 C758.788 478.498 755.406 478.521 752.023 478.547 C733.579 478.601 715.669 476.955 697.761 472.373 C696.724 472.113 695.686 471.854 694.616 471.587 C691.534 470.806 688.46 470.001 685.386 469.185 C684.936 469.067 684.936 469.067 682.658 468.47 C657.005 461.639 634.165 449.92 614.386 432.185 C613.367 431.359 612.347 430.533 611.297 429.681 C606.668 425.712 603.134 420.972 599.386 416.185 C598.652 415.266 597.917 414.347 597.16 413.4 C592.661 407.622 588.733 401.673 585.011 395.373 C584.595 394.668 584.178 393.962 583.748 393.236 C581.295 388.995 579.232 384.733 577.386 380.185 C576.952 379.128 576.518 378.071 576.07 376.982 C575.235 374.941 574.402 372.899 573.57 370.857 C572.386 368.185 572.386 368.185 570.386 365.185 C569.569 362.545 569.006 359.883 568.386 357.185 C567.066 357.185 565.746 357.185 564.386 357.185 C564.191 357.783 564.191 357.783 563.199 360.81 C562.595 362.602 561.991 364.394 561.386 366.185 C561.023 367.295 560.659 368.405 560.285 369.549 C558.053 376.135 555.608 381.979 551.847 387.83 C550.377 390.201 549.193 392.597 548.011 395.123 C545.14 400.986 541.355 406.024 537.386 411.185 C536.804 411.974 536.221 412.763 535.621 413.576 C526.347 425.753 515.075 436.637 502.386 445.185 C501.814 445.58 501.242 445.975 500.652 446.382 C468.277 468.562 426.886 478.593 388.037 478.501 C385.286 478.498 382.536 478.521 379.785 478.547 C362.755 478.609 346.067 476.811 329.699 471.935 C328.654 471.632 327.608 471.328 326.531 471.015 C311.54 466.562 297.782 460.753 284.13 453.144 C282.708 452.362 281.265 451.619 279.816 450.888 C268.488 445.12 258.567 435.833 249.386 427.185 C249.056 426.881 249.056 426.881 247.383 425.342 C235.053 413.584 225.68 398.949 217.386 384.185 C217.031 383.557 216.675 382.929 216.309 382.281 C211.429 373.586 207.331 365.113 204.457 355.552 C203.321 351.979 201.869 348.628 200.386 345.185 C198.694 339.913 197.425 334.571 196.449 329.123 C195.459 323.849 193.534 319.085 191.386 314.185 C190.396 314.185 189.406 314.185 188.386 314.185 C188.372 314.829 188.357 315.472 188.342 316.135 C188.014 329.13 187.334 341.491 184.386 354.185 C184.047 355.735 183.708 357.284 183.371 358.834 C183.024 360.389 182.675 361.944 182.324 363.498 C182.243 363.86 182.243 363.86 181.833 365.693 C181.048 369.022 180.306 371.306 178.386 374.185 C178.015 375.402 177.644 376.619 177.261 377.873 C171.193 396.564 159.494 412.834 146.386 427.185 C146.036 427.571 146.036 427.571 144.265 429.525 C138.893 435.166 132.719 439.681 126.386 444.185 C125.438 444.867 124.489 445.549 123.511 446.252 C110.332 455.402 96.121 461.43 80.949 466.373 C80.174 466.629 79.399 466.886 78.6 467.15 C58.308 473.838 37.967 478.274 16.539 478.424 C15.41 478.432 14.281 478.44 13.118 478.448 C10.73 478.462 8.342 478.473 5.955 478.48 C3.561 478.492 1.167 478.512 -1.226 478.542 C-34.351 478.953 -69.731 473.25 -99.313 457.412 C-100.978 456.524 -102.673 455.692 -104.383 454.896 C-134.51 440.761 -155.462 414.081 -168.614 384.185 C-169.102 383.093 -169.591 382.002 -170.094 380.877 C-174.293 371.021 -176.788 361.02 -179.023 350.556 C-179.614 348.185 -179.614 348.185 -180.628 345.354 C-181.731 341.808 -182.129 338.534 -182.465 334.838 C-182.529 334.144 -182.593 333.451 -182.658 332.737 C-182.791 331.274 -182.92 329.811 -183.046 328.348 C-183.236 326.153 -183.439 323.959 -183.645 321.765 C-184.027 317.575 -184.339 313.384 -184.614 309.185 C-184.7 307.938 -184.786 306.69 -184.874 305.405 C-184.92 304.261 -184.965 303.117 -185.012 301.939 C-185.058 300.943 -185.103 299.948 -185.15 298.922 C-184.357 294.878 -182.904 293.663 -179.614 291.185 C-175.992 290.438 -172.424 290.502 -168.736 290.538 C-167.64 290.53 -166.543 290.521 -165.414 290.512 C-161.791 290.49 -158.17 290.504 -154.547 290.521 C-152.03 290.518 -149.514 290.513 -146.997 290.507 C-141.724 290.499 -136.451 290.51 -131.177 290.533 C-125.084 290.561 -118.991 290.552 -112.897 290.524 C-107.03 290.499 -101.162 290.502 -95.295 290.516 C-92.8 290.52 -90.305 290.515 -87.811 290.504 C-84.327 290.491 -80.845 290.51 -77.361 290.538 C-76.327 290.528 -75.293 290.518 -74.227 290.508 C-67.251 290.611 -67.251 290.611 -63.977 293.56 C-62.462 296.477 -62.069 298.411 -61.961 301.685 C-61.91 302.731 -61.858 303.778 -61.805 304.855 C-61.763 305.954 -61.72 307.053 -61.676 308.185 C-61.11 317.846 -60.043 325.489 -55.614 334.185 C-55.459 334.548 -55.459 334.548 -54.68 336.381 C-49.268 348.648 -38.149 358.896 -25.969 364.345 C-8.499 370.574 8.633 371.547 26.074 364.373 C39.512 357.933 47.328 348.779 53.386 335.185 C54.228 332.438 54.407 330.048 54.386 327.185 C54.423 326.188 54.459 325.19 54.496 324.162 C54.718 314.631 53.931 306.394 49.34 297.947 C48.159 295.764 47.257 293.507 46.386 291.185 C45.726 291.185 45.066 291.185 44.386 291.185 C43.788 290.36 43.19 289.535 42.574 288.685 C36.858 281.523 26.973 276.897 18.386 274.185 C17.376 273.814 16.365 273.443 15.324 273.06 C9.347 271.28 3.383 271.054 -2.813 271.045 C-4.367 271.026 -5.921 271.007 -7.475 270.986 C-9.898 270.957 -12.32 270.935 -14.743 270.935 C-17.1 270.931 -19.456 270.897 -21.813 270.857 C-22.536 270.864 -23.259 270.871 -24.004 270.879 C-27.491 270.794 -29.232 270.545 -31.803 268.117 C-34.011 264.541 -34.179 261.705 -34.131 257.629 C-34.138 256.885 -34.145 256.141 -34.152 255.375 C-34.17 252.926 -34.158 250.478 -34.145 248.029 C-34.147 246.322 -34.151 244.615 -34.156 242.907 C-34.162 239.333 -34.154 235.759 -34.135 232.185 C-34.112 227.608 -34.125 223.032 -34.149 218.456 C-34.164 214.931 -34.159 211.407 -34.149 207.883 C-34.146 206.196 -34.149 204.508 -34.159 202.821 C-34.169 200.461 -34.153 198.102 -34.131 195.742 C-34.139 195.048 -34.147 194.354 -34.156 193.638 C-34.095 190.158 -33.643 188.233 -31.789 185.252 C-28.696 182.313 -26.563 182.558 -22.348 182.549 C-21.637 182.538 -20.926 182.528 -20.193 182.517 C-17.916 182.488 -15.641 182.491 -13.364 182.498 C-10.4 182.486 -7.436 182.46 -4.473 182.424 C-3.739 182.415 -3.006 182.406 -2.25 182.397 C13.818 182.093 29.558 179.648 42.386 169.185 C50.153 161.01 50.585 152.286 50.472 141.525 C50.239 132.473 47.857 126.297 42.386 119.185 C42.386 118.525 42.386 117.865 42.386 117.185 C41.83 116.938 41.273 116.69 40.699 116.435 C38.386 115.185 38.386 115.185 36.324 113.373 C23.109 103.532 6.521 101.857 -9.395 103.467 C-23.195 105.796 -35.241 111.857 -43.614 123.185 C-46.613 127.482 -47.671 131.641 -48.739 136.685 C-48.915 137.478 -49.091 138.271 -49.272 139.088 C-50.505 144.905 -51.027 150.527 -50.949 156.486 C-51.74 159.698 -53.129 161.098 -55.695 163.128 C-59.412 165.176 -63.336 164.843 -67.483 164.769 C-68.461 164.771 -69.44 164.773 -70.447 164.776 C-73.674 164.777 -76.899 164.743 -80.125 164.709 C-82.377 164.702 -84.629 164.697 -86.881 164.694 C-92.81 164.681 -98.739 164.637 -104.668 164.587 C-109.486 164.552 -114.305 164.538 -119.124 164.526 C-124.895 164.512 -130.666 164.486 -136.438 164.459 C-137.529 164.454 -138.62 164.449 -139.744 164.444 C-142.862 164.427 -145.979 164.404 -149.097 164.378 C-149.549 164.376 -149.549 164.376 -151.839 164.365 C-156.448 164.319 -161.045 164.159 -165.646 163.861 C-166.549 163.804 -167.452 163.748 -168.382 163.69 C-170.614 163.185 -170.614 163.185 -172.614 160.185 C-172.796 158.047 -172.796 158.047 -172.696 155.572 C-172.66 154.66 -172.624 153.749 -172.586 152.81 C-172.533 151.841 -172.481 150.871 -172.426 149.873 C-172.376 148.88 -172.327 147.888 -172.275 146.865 C-171.877 140.125 -170.986 133.842 -169.367 127.283 C-168.616 124.196 -168.091 121.138 -167.614 117.998 C-165.95 107.784 -162.761 98.644 -158.614 89.185 C-158.147 88.075 -157.68 86.966 -157.199 85.822 C-151.178 72.014 -143.65 60.415 -133.614 49.185 C-133.158 48.667 -132.702 48.15 -132.232 47.616 C-119.66 33.53 -103.763 24.558 -86.614 17.185 C-85.972 16.9 -85.331 16.614 -84.671 16.32 C-58.147 4.507 -28.83 -0.003 0 0 Z M338.386 258.185 C333.728 263.365 329.416 268.89 326.386 275.185 C325.891 276.18 325.396 277.176 324.886 278.201 C320.855 286.846 319.069 294.635 318.386 304.185 C318.351 304.609 318.351 304.609 318.172 306.756 C317.697 317.966 320.084 330.313 325.386 340.185 C325.671 340.832 325.956 341.48 326.25 342.146 C333.004 357.203 345.62 366.852 360.386 373.185 C376.166 379.111 392.964 378.464 408.621 372.447 C423.218 365.788 434.986 354.575 441.449 339.748 C442.487 336.911 443.449 334.057 444.386 331.185 C444.737 330.257 445.088 329.329 445.449 328.373 C450.785 310.231 447.594 290.116 439.199 273.56 C431.019 258.98 418.231 248.408 402.261 243.435 C379.192 237.749 356.465 242.719 338.386 258.185 Z M187.386 294.185 C185.214 297.444 185.151 298.006 185.574 301.685 C185.65 302.459 185.726 303.232 185.804 304.029 C186.48 306.533 187.426 307.537 189.386 309.185 C191.897 306.675 191.684 305.717 191.699 302.248 C191.716 301.373 191.732 300.497 191.75 299.595 C191.325 296.774 190.619 295.898 188.386 294.185 C188.056 294.185 187.726 294.185 187.386 294.185 Z " fill="#023819" transform="translate(2611.613525390625,915.814697265625)"/>
</svg>
